<?xml version="1.0" encoding="utf-8"?>
<svg version="1.1" id="Layer_1"
xmlns="http://www.w3.org/2000/svg"
xmlns:xlink="http://www.w3.org/1999/xlink"
width="1520px" height="625px"
xml:space="preserve">
<g id="PathID_1" transform="matrix(0.747628, 0.0137293, -0.0137293, 0.747628, 776.8, 600.8)" opacity="1">
<path style="fill:#2D6353;fill-opacity:0.419608" d="M48.65 -14.65Q58.35 -5.4 63.6 6.5Q68.85 18.55 68.85 31.6Q68.85 32.6 68.15 33.3Q67.5 33.95 66.55 33.95L37.55 33.95Q36.55 33.95 35.9 33.3Q35.2 32.6 35.2 31.6Q35.2 24.85 32.45 18.7Q29.8 12.75 24.9 8.1Q20 3.5 13.65 0.9Q7.2 -1.7 -0.05 -1.7Q-7.25 -1.7 -13.75 0.9Q-20.05 3.5 -24.95 8.1Q-29.75 12.75 -32.5 18.7Q-35.3 24.85 -35.3 31.6Q-35.3 32.6 -36 33.3Q-36.6 33.95 -37.6 33.95L-66.6 33.95Q-67.6 33.95 -68.2 33.3Q-68.9 32.6 -68.9 31.6Q-68.9 18.55 -63.65 6.5Q-58.5 -5.4 -48.7 -14.65Q-38.95 -23.95 -26.4 -28.9Q-13.85 -33.9 -0.05 -33.9Q13.75 -33.9 26.3 -28.9Q38.85 -23.95 48.65 -14.65" />
</g>
<g id="PathID_2" transform="matrix(0.747628, 0.0137293, -0.0137293, 0.747628, 776.8, 600.8)" opacity="1">
</g>
<g id="PathID_3" transform="matrix(-0.24482, 0.779563, -0.779563, -0.24482, 1465.2, 64.35)" opacity="1">
<path style="fill:#8B9795;fill-opacity:0.2" d="M54.35 -11.45L54.35 11.45L11.55 54.35L-11.45 54.35L-54.35 11.65L-54.35 -11.65L-11.65 -54.35L11.55 -54.35L54.35 -11.45" />
</g>
<g id="PathID_4" transform="matrix(-0.24482, 0.779563, -0.779563, -0.24482, 1465.2, 64.35)" opacity="1">
</g>
<g id="PathID_5" transform="matrix(-0.24482, 0.779563, -0.779563, -0.24482, 1470.2, 48.25)" opacity="1">
<path style="fill:#108E7D;fill-opacity:0.678431" d="M54.35 -11.45L54.35 11.45L11.55 54.35L-11.45 54.35L-54.35 11.65L-54.35 -11.65L-11.65 -54.35L11.55 -54.35L54.35 -11.45" />
</g>
<g id="PathID_6" transform="matrix(-0.24482, 0.779563, -0.779563, -0.24482, 1470.2, 48.25)" opacity="1">
</g>
<g id="PathID_7" transform="matrix(0.447968, -0.598717, 0.598717, 0.447968, 37.45, 39.4)" opacity="1">
<path style="fill:#2D6353;fill-opacity:0.419608" d="M48.65 -14.65Q58.35 -5.4 63.6 6.5Q68.85 18.55 68.85 31.6Q68.85 32.6 68.15 33.3Q67.5 33.95 66.55 33.95L37.55 33.95Q36.55 33.95 35.9 33.3Q35.2 32.6 35.2 31.6Q35.2 24.85 32.45 18.7Q29.8 12.75 24.9 8.1Q20 3.5 13.65 0.9Q7.2 -1.7 -0.05 -1.7Q-7.25 -1.7 -13.75 0.9Q-20.05 3.5 -24.95 8.1Q-29.75 12.75 -32.5 18.7Q-35.3 24.85 -35.3 31.6Q-35.3 32.6 -36 33.3Q-36.6 33.95 -37.6 33.95L-66.6 33.95Q-67.6 33.95 -68.2 33.3Q-68.9 32.6 -68.9 31.6Q-68.9 18.55 -63.65 6.5Q-58.5 -5.4 -48.7 -14.65Q-38.95 -23.95 -26.4 -28.9Q-13.85 -33.9 -0.05 -33.9Q13.75 -33.9 26.3 -28.9Q38.85 -23.95 48.65 -14.65" />
</g>
<g id="PathID_8" transform="matrix(0.447968, -0.598717, 0.598717, 0.447968, 37.45, 39.4)" opacity="1">
</g>
</svg>
