<?xml version="1.0" encoding="utf-8"?>
<svg version="1.1" id="Layer_1"
xmlns="http://www.w3.org/2000/svg"
xmlns:xlink="http://www.w3.org/1999/xlink"
width="113px" height="153px"
xml:space="preserve">
<g id="PathID_1" transform="matrix(1.07322, -0.0480617, 0.0447378, 0.998999, 56.65, 95.6)" opacity="1">
<path style="fill:#DBF335;fill-opacity:1" d="M30.2 25.45Q20.35 20.5 -12.3 8.45Q-38.5 -1.9 -48.85 -9Q-52.35 -13.95 -48.85 -23Q-45.05 -28.35 -36.85 -27Q-34.1 -26.7 -21.1 -21.45Q-9.2 -16.65 6.7 -9.75Q21.45 -3.3 33.75 2.6Q45 8.05 47.45 10.25Q54.5 18.95 46.1 24.7Q39.8 29.5 30.2 25.45" />
</g>
<g id="PathID_2" transform="matrix(1.07322, -0.0480617, 0.0447378, 0.998999, 56.65, 95.6)" opacity="1">
</g>
<g id="PathID_3" transform="matrix(0.279453, 0, 0, 0.279453, 48.85, 14.5)" opacity="1">
<path style="fill:#FF8E00;fill-opacity:1" d="M36 -36.1Q51 -21.1 51 0Q51 21.1 36 36Q21.1 51 0 51Q-21.1 51 -36.1 36Q-51 21.1 -51 0Q-51 -21.1 -36.1 -36.1Q-21.1 -51 0 -51Q21.1 -51 36 -36.1" />
</g>
<g id="PathID_4" transform="matrix(0.279453, 0, 0, 0.279453, 48.85, 14.5)" opacity="1">
</g>
<g id="PathID_5" transform="matrix(0.279453, 0, 0, 0.279453, 90.45, 64.65)" opacity="1">
<path style="fill:#0A67A3;fill-opacity:1" d="M36 -36.1Q51 -21.1 51 0Q51 21.1 36 36Q21.1 51 0 51Q-21.1 51 -36.1 36Q-51 21.1 -51 0Q-51 -21.1 -36.1 -36.1Q-21.1 -51 0 -51Q21.1 -51 36 -36.1" />
</g>
<g id="PathID_6" transform="matrix(0.279453, 0, 0, 0.279453, 90.45, 64.65)" opacity="1">
</g>
<g id="PathID_7" transform="matrix(0.279453, 0, 0, 0.279453, 60.95, 134.35)" opacity="1">
<path style="fill:#01939A;fill-opacity:1" d="M36 -36.1Q51 -21.1 51 0Q51 21.1 36 36Q21.1 51 0 51Q-21.1 51 -36.1 36Q-51 21.1 -51 0Q-51 -21.1 -36.1 -36.1Q-21.1 -51 0 -51Q21.1 -51 36 -36.1" />
</g>
<g id="PathID_8" transform="matrix(0.279453, 0, 0, 0.279453, 60.95, 134.35)" opacity="1">
</g>
</svg>
