<?xml version="1.0" encoding="utf-8"?>
<svg version="1.1" id="Layer_1"
xmlns="http://www.w3.org/2000/svg"
xmlns:xlink="http://www.w3.org/1999/xlink"
width="1343px" height="193px"
xml:space="preserve">
<g id="PathID_1" transform="matrix(0.882152, 0.230837, -0.230837, 0.882152, 196.9, 138.85)" opacity="1">
<path style="fill:#90C2BC;fill-opacity:1" d="M36.55 -46.9L36.85 -46.2L36.55 -45.5L28.15 -37.1Q27.85 -36.8 27.45 -36.8Q27.05 -36.8 26.75 -37.1Q26.45 -37.4 26.45 -37.8Q26.45 -38.2 26.75 -38.5L35.15 -46.9L35.85 -47.2Q36.25 -47.2 36.55 -46.9M20.05 -29.4L19.75 -28.7L11.35 -20.3Q11.05 -20 10.65 -20Q10.25 -20 9.95 -20.3Q9.65 -20.6 9.65 -21Q9.65 -21.4 9.95 -21.7L18.35 -30.1L19.05 -30.4Q19.45 -30.4 19.75 -30.1L20.05 -29.4M2.25 -13.6Q2.65 -13.6 2.95 -13.3L3.25 -12.6L2.95 -11.9L-5.45 -3.5Q-5.75 -3.2 -6.15 -3.2Q-6.55 -3.2 -6.85 -3.5L-7.15 -4.2L-6.85 -4.9L1.55 -13.3L2.25 -13.6M56.5 -27.45L56.5 -28.1L57.55 -25.6L56.5 -27.45M57.6 12.6L56.5 15.25L56.5 14.55L57.6 12.6M-13.85 3.5Q-13.55 3.8 -13.55 4.2Q-13.55 4.6 -13.85 4.9L-22.25 13.3Q-22.55 13.6 -22.95 13.6L-23.65 13.3L-23.95 12.6L-23.65 11.9L-15.25 3.5Q-14.95 3.2 -14.55 3.2Q-14.15 3.2 -13.85 3.5M-31.35 20Q-30.95 20 -30.65 20.3Q-30.35 20.6 -30.35 21Q-30.35 21.4 -30.65 21.7L-39.05 30.1Q-39.35 30.4 -39.75 30.4L-40.45 30.1L-40.75 29.4L-40.45 28.7L-32.05 20.3Q-31.75 20 -31.35 20M-48.15 36.8Q-47.75 36.8 -47.45 37.1Q-47.15 37.4 -47.15 37.8Q-47.15 38.2 -47.45 38.5L-55.85 46.9Q-56.15 47.2 -56.55 47.2L-57.25 46.9L-57.55 46.2L-57.25 45.5L-48.85 37.1Q-48.55 36.8 -48.15 36.8" />
</g>
<g id="PathID_2" transform="matrix(0.882152, 0.230837, -0.230837, 0.882152, 196.9, 138.85)" opacity="1">
</g>
<g id="PathID_3" transform="matrix(0.343282, 0.844769, -0.844769, 0.343282, 419.8, 73.75)" opacity="1">
<path style="fill:#90C2BC;fill-opacity:1" d="M36.55 -46.9L36.85 -46.2L36.55 -45.5L28.15 -37.1Q27.85 -36.8 27.45 -36.8Q27.05 -36.8 26.75 -37.1Q26.45 -37.4 26.45 -37.8Q26.45 -38.2 26.75 -38.5L35.15 -46.9L35.85 -47.2Q36.25 -47.2 36.55 -46.9M20.05 -29.4L19.75 -28.7L11.35 -20.3Q11.05 -20 10.65 -20Q10.25 -20 9.95 -20.3Q9.65 -20.6 9.65 -21Q9.65 -21.4 9.95 -21.7L18.35 -30.1L19.05 -30.4Q19.45 -30.4 19.75 -30.1L20.05 -29.4M2.25 -13.6Q2.65 -13.6 2.95 -13.3L3.25 -12.6L2.95 -11.9L-5.45 -3.5Q-5.75 -3.2 -6.15 -3.2Q-6.55 -3.2 -6.85 -3.5L-7.15 -4.2L-6.85 -4.9L1.55 -13.3L2.25 -13.6M56.5 -27.45L56.5 -28.1L57.55 -25.6L56.5 -27.45M57.6 12.6L56.5 15.25L56.5 14.55L57.6 12.6M-13.85 3.5Q-13.55 3.8 -13.55 4.2Q-13.55 4.6 -13.85 4.9L-22.25 13.3Q-22.55 13.6 -22.95 13.6L-23.65 13.3L-23.95 12.6L-23.65 11.9L-15.25 3.5Q-14.95 3.2 -14.55 3.2Q-14.15 3.2 -13.85 3.5M-31.35 20Q-30.95 20 -30.65 20.3Q-30.35 20.6 -30.35 21Q-30.35 21.4 -30.65 21.7L-39.05 30.1Q-39.35 30.4 -39.75 30.4L-40.45 30.1L-40.75 29.4L-40.45 28.7L-32.05 20.3Q-31.75 20 -31.35 20M-48.15 36.8Q-47.75 36.8 -47.45 37.1Q-47.15 37.4 -47.15 37.8Q-47.15 38.2 -47.45 38.5L-55.85 46.9Q-56.15 47.2 -56.55 47.2L-57.25 46.9L-57.55 46.2L-57.25 45.5L-48.85 37.1Q-48.55 36.8 -48.15 36.8" />
</g>
<g id="PathID_4" transform="matrix(0.343282, 0.844769, -0.844769, 0.343282, 419.8, 73.75)" opacity="1">
</g>
<g id="PathID_5" transform="matrix(0.882152, 0.230837, -0.230837, 0.882152, 309.55, 72.85)" opacity="1">
<path style="fill:#90C2BC;fill-opacity:1" d="M36.55 -46.9L36.85 -46.2L36.55 -45.5L28.15 -37.1Q27.85 -36.8 27.45 -36.8Q27.05 -36.8 26.75 -37.1Q26.45 -37.4 26.45 -37.8Q26.45 -38.2 26.75 -38.5L35.15 -46.9L35.85 -47.2Q36.25 -47.2 36.55 -46.9M20.05 -29.4L19.75 -28.7L11.35 -20.3Q11.05 -20 10.65 -20Q10.25 -20 9.95 -20.3Q9.65 -20.6 9.65 -21Q9.65 -21.4 9.95 -21.7L18.35 -30.1L19.05 -30.4Q19.45 -30.4 19.75 -30.1L20.05 -29.4M2.25 -13.6Q2.65 -13.6 2.95 -13.3L3.25 -12.6L2.95 -11.9L-5.45 -3.5Q-5.75 -3.2 -6.15 -3.2Q-6.55 -3.2 -6.85 -3.5L-7.15 -4.2L-6.85 -4.9L1.55 -13.3L2.25 -13.6M56.5 -27.45L56.5 -28.1L57.55 -25.6L56.5 -27.45M57.6 12.6L56.5 15.25L56.5 14.55L57.6 12.6M-13.85 3.5Q-13.55 3.8 -13.55 4.2Q-13.55 4.6 -13.85 4.9L-22.25 13.3Q-22.55 13.6 -22.95 13.6L-23.65 13.3L-23.95 12.6L-23.65 11.9L-15.25 3.5Q-14.95 3.2 -14.55 3.2Q-14.15 3.2 -13.85 3.5M-31.35 20Q-30.95 20 -30.65 20.3Q-30.35 20.6 -30.35 21Q-30.35 21.4 -30.65 21.7L-39.05 30.1Q-39.35 30.4 -39.75 30.4L-40.45 30.1L-40.75 29.4L-40.45 28.7L-32.05 20.3Q-31.75 20 -31.35 20M-48.15 36.8Q-47.75 36.8 -47.45 37.1Q-47.15 37.4 -47.15 37.8Q-47.15 38.2 -47.45 38.5L-55.85 46.9Q-56.15 47.2 -56.55 47.2L-57.25 46.9L-57.55 46.2L-57.25 45.5L-48.85 37.1Q-48.55 36.8 -48.15 36.8" />
</g>
<g id="PathID_6" transform="matrix(0.882152, 0.230837, -0.230837, 0.882152, 309.55, 72.85)" opacity="1">
</g>
<g id="PathID_7" transform="matrix(0.343282, 0.844769, -0.844769, 0.343282, 540.6, 123.75)" opacity="1">
<path style="fill:#90C2BC;fill-opacity:1" d="M36.55 -46.9L36.85 -46.2L36.55 -45.5L28.15 -37.1Q27.85 -36.8 27.45 -36.8Q27.05 -36.8 26.75 -37.1Q26.45 -37.4 26.45 -37.8Q26.45 -38.2 26.75 -38.5L35.15 -46.9L35.85 -47.2Q36.25 -47.2 36.55 -46.9M20.05 -29.4L19.75 -28.7L11.35 -20.3Q11.05 -20 10.65 -20Q10.25 -20 9.95 -20.3Q9.65 -20.6 9.65 -21Q9.65 -21.4 9.95 -21.7L18.35 -30.1L19.05 -30.4Q19.45 -30.4 19.75 -30.1L20.05 -29.4M2.25 -13.6Q2.65 -13.6 2.95 -13.3L3.25 -12.6L2.95 -11.9L-5.45 -3.5Q-5.75 -3.2 -6.15 -3.2Q-6.55 -3.2 -6.85 -3.5L-7.15 -4.2L-6.85 -4.9L1.55 -13.3L2.25 -13.6M56.5 -27.45L56.5 -28.1L57.55 -25.6L56.5 -27.45M57.6 12.6L56.5 15.25L56.5 14.55L57.6 12.6M-13.85 3.5Q-13.55 3.8 -13.55 4.2Q-13.55 4.6 -13.85 4.9L-22.25 13.3Q-22.55 13.6 -22.95 13.6L-23.65 13.3L-23.95 12.6L-23.65 11.9L-15.25 3.5Q-14.95 3.2 -14.55 3.2Q-14.15 3.2 -13.85 3.5M-31.35 20Q-30.95 20 -30.65 20.3Q-30.35 20.6 -30.35 21Q-30.35 21.4 -30.65 21.7L-39.05 30.1Q-39.35 30.4 -39.75 30.4L-40.45 30.1L-40.75 29.4L-40.45 28.7L-32.05 20.3Q-31.75 20 -31.35 20M-48.15 36.8Q-47.75 36.8 -47.45 37.1Q-47.15 37.4 -47.15 37.8Q-47.15 38.2 -47.45 38.5L-55.85 46.9Q-56.15 47.2 -56.55 47.2L-57.25 46.9L-57.55 46.2L-57.25 45.5L-48.85 37.1Q-48.55 36.8 -48.15 36.8" />
</g>
<g id="PathID_8" transform="matrix(0.343282, 0.844769, -0.844769, 0.343282, 540.6, 123.75)" opacity="1">
</g>
<g id="PathID_9" transform="matrix(0.787933, 0.458955, -0.458955, 0.787933, 670.2, 129.1)" opacity="1">
<path style="fill:#90C2BC;fill-opacity:1" d="M36.55 -46.9L36.85 -46.2L36.55 -45.5L28.15 -37.1Q27.85 -36.8 27.45 -36.8Q27.05 -36.8 26.75 -37.1Q26.45 -37.4 26.45 -37.8Q26.45 -38.2 26.75 -38.5L35.15 -46.9L35.85 -47.2Q36.25 -47.2 36.55 -46.9M20.05 -29.4L19.75 -28.7L11.35 -20.3Q11.05 -20 10.65 -20Q10.25 -20 9.95 -20.3Q9.65 -20.6 9.65 -21Q9.65 -21.4 9.95 -21.7L18.35 -30.1L19.05 -30.4Q19.45 -30.4 19.75 -30.1L20.05 -29.4M2.25 -13.6Q2.65 -13.6 2.95 -13.3L3.25 -12.6L2.95 -11.9L-5.45 -3.5Q-5.75 -3.2 -6.15 -3.2Q-6.55 -3.2 -6.85 -3.5L-7.15 -4.2L-6.85 -4.9L1.55 -13.3L2.25 -13.6M56.5 -27.45L56.5 -28.1L57.55 -25.6L56.5 -27.45M57.6 12.6L56.5 15.25L56.5 14.55L57.6 12.6M-13.85 3.5Q-13.55 3.8 -13.55 4.2Q-13.55 4.6 -13.85 4.9L-22.25 13.3Q-22.55 13.6 -22.95 13.6L-23.65 13.3L-23.95 12.6L-23.65 11.9L-15.25 3.5Q-14.95 3.2 -14.55 3.2Q-14.15 3.2 -13.85 3.5M-31.35 20Q-30.95 20 -30.65 20.3Q-30.35 20.6 -30.35 21Q-30.35 21.4 -30.65 21.7L-39.05 30.1Q-39.35 30.4 -39.75 30.4L-40.45 30.1L-40.75 29.4L-40.45 28.7L-32.05 20.3Q-31.75 20 -31.35 20M-48.15 36.8Q-47.75 36.8 -47.45 37.1Q-47.15 37.4 -47.15 37.8Q-47.15 38.2 -47.45 38.5L-55.85 46.9Q-56.15 47.2 -56.55 47.2L-57.25 46.9L-57.55 46.2L-57.25 45.5L-48.85 37.1Q-48.55 36.8 -48.15 36.8" />
</g>
<g id="PathID_10" transform="matrix(0.787933, 0.458955, -0.458955, 0.787933, 670.2, 129.1)" opacity="1">
</g>
<g id="PathID_11" transform="matrix(0.787933, 0.458955, -0.458955, 0.787933, 798.55, 94.55)" opacity="1">
<path style="fill:#90C2BC;fill-opacity:1" d="M36.55 -46.9L36.85 -46.2L36.55 -45.5L28.15 -37.1Q27.85 -36.8 27.45 -36.8Q27.05 -36.8 26.75 -37.1Q26.45 -37.4 26.45 -37.8Q26.45 -38.2 26.75 -38.5L35.15 -46.9L35.85 -47.2Q36.25 -47.2 36.55 -46.9M20.05 -29.4L19.75 -28.7L11.35 -20.3Q11.05 -20 10.65 -20Q10.25 -20 9.95 -20.3Q9.65 -20.6 9.65 -21Q9.65 -21.4 9.95 -21.7L18.35 -30.1L19.05 -30.4Q19.45 -30.4 19.75 -30.1L20.05 -29.4M2.25 -13.6Q2.65 -13.6 2.95 -13.3L3.25 -12.6L2.95 -11.9L-5.45 -3.5Q-5.75 -3.2 -6.15 -3.2Q-6.55 -3.2 -6.85 -3.5L-7.15 -4.2L-6.85 -4.9L1.55 -13.3L2.25 -13.6M56.5 -27.45L56.5 -28.1L57.55 -25.6L56.5 -27.45M57.6 12.6L56.5 15.25L56.5 14.55L57.6 12.6M-13.85 3.5Q-13.55 3.8 -13.55 4.2Q-13.55 4.6 -13.85 4.9L-22.25 13.3Q-22.55 13.6 -22.95 13.6L-23.65 13.3L-23.95 12.6L-23.65 11.9L-15.25 3.5Q-14.95 3.2 -14.55 3.2Q-14.15 3.2 -13.85 3.5M-31.35 20Q-30.95 20 -30.65 20.3Q-30.35 20.6 -30.35 21Q-30.35 21.4 -30.65 21.7L-39.05 30.1Q-39.35 30.4 -39.75 30.4L-40.45 30.1L-40.75 29.4L-40.45 28.7L-32.05 20.3Q-31.75 20 -31.35 20M-48.15 36.8Q-47.75 36.8 -47.45 37.1Q-47.15 37.4 -47.15 37.8Q-47.15 38.2 -47.45 38.5L-55.85 46.9Q-56.15 47.2 -56.55 47.2L-57.25 46.9L-57.55 46.2L-57.25 45.5L-48.85 37.1Q-48.55 36.8 -48.15 36.8" />
</g>
<g id="PathID_12" transform="matrix(0.787933, 0.458955, -0.458955, 0.787933, 798.55, 94.55)" opacity="1">
</g>
<g id="PathID_13" transform="matrix(0.787933, 0.458955, -0.458955, 0.787933, 926.8, 60.55)" opacity="1">
<path style="fill:#90C2BC;fill-opacity:1" d="M36.55 -46.9L36.85 -46.2L36.55 -45.5L28.15 -37.1Q27.85 -36.8 27.45 -36.8Q27.05 -36.8 26.75 -37.1Q26.45 -37.4 26.45 -37.8Q26.45 -38.2 26.75 -38.5L35.15 -46.9L35.85 -47.2Q36.25 -47.2 36.55 -46.9M20.05 -29.4L19.75 -28.7L11.35 -20.3Q11.05 -20 10.65 -20Q10.25 -20 9.95 -20.3Q9.65 -20.6 9.65 -21Q9.65 -21.4 9.95 -21.7L18.35 -30.1L19.05 -30.4Q19.45 -30.4 19.75 -30.1L20.05 -29.4M2.25 -13.6Q2.65 -13.6 2.95 -13.3L3.25 -12.6L2.95 -11.9L-5.45 -3.5Q-5.75 -3.2 -6.15 -3.2Q-6.55 -3.2 -6.85 -3.5L-7.15 -4.2L-6.85 -4.9L1.55 -13.3L2.25 -13.6M56.5 -27.45L56.5 -28.1L57.55 -25.6L56.5 -27.45M57.6 12.6L56.5 15.25L56.5 14.55L57.6 12.6M-13.85 3.5Q-13.55 3.8 -13.55 4.2Q-13.55 4.6 -13.85 4.9L-22.25 13.3Q-22.55 13.6 -22.95 13.6L-23.65 13.3L-23.95 12.6L-23.65 11.9L-15.25 3.5Q-14.95 3.2 -14.55 3.2Q-14.15 3.2 -13.85 3.5M-31.35 20Q-30.95 20 -30.65 20.3Q-30.35 20.6 -30.35 21Q-30.35 21.4 -30.65 21.7L-39.05 30.1Q-39.35 30.4 -39.75 30.4L-40.45 30.1L-40.75 29.4L-40.45 28.7L-32.05 20.3Q-31.75 20 -31.35 20M-48.15 36.8Q-47.75 36.8 -47.45 37.1Q-47.15 37.4 -47.15 37.8Q-47.15 38.2 -47.45 38.5L-55.85 46.9Q-56.15 47.2 -56.55 47.2L-57.25 46.9L-57.55 46.2L-57.25 45.5L-48.85 37.1Q-48.55 36.8 -48.15 36.8" />
</g>
<g id="PathID_14" transform="matrix(0.787933, 0.458955, -0.458955, 0.787933, 926.8, 60.55)" opacity="1">
</g>
<g id="PathID_15" transform="matrix(0.0251708, 0.911507, -0.911507, 0.0251708, 1029.7, 91.5)" opacity="1">
<path style="fill:#90C2BC;fill-opacity:1" d="M36.55 -46.9L36.85 -46.2L36.55 -45.5L28.15 -37.1Q27.85 -36.8 27.45 -36.8Q27.05 -36.8 26.75 -37.1Q26.45 -37.4 26.45 -37.8Q26.45 -38.2 26.75 -38.5L35.15 -46.9L35.85 -47.2Q36.25 -47.2 36.55 -46.9M20.05 -29.4L19.75 -28.7L11.35 -20.3Q11.05 -20 10.65 -20Q10.25 -20 9.95 -20.3Q9.65 -20.6 9.65 -21Q9.65 -21.4 9.95 -21.7L18.35 -30.1L19.05 -30.4Q19.45 -30.4 19.75 -30.1L20.05 -29.4M2.25 -13.6Q2.65 -13.6 2.95 -13.3L3.25 -12.6L2.95 -11.9L-5.45 -3.5Q-5.75 -3.2 -6.15 -3.2Q-6.55 -3.2 -6.85 -3.5L-7.15 -4.2L-6.85 -4.9L1.55 -13.3L2.25 -13.6M56.5 -27.45L56.5 -28.1L57.55 -25.6L56.5 -27.45M57.6 12.6L56.5 15.25L56.5 14.55L57.6 12.6M-13.85 3.5Q-13.55 3.8 -13.55 4.2Q-13.55 4.6 -13.85 4.9L-22.25 13.3Q-22.55 13.6 -22.95 13.6L-23.65 13.3L-23.95 12.6L-23.65 11.9L-15.25 3.5Q-14.95 3.2 -14.55 3.2Q-14.15 3.2 -13.85 3.5M-31.35 20Q-30.95 20 -30.65 20.3Q-30.35 20.6 -30.35 21Q-30.35 21.4 -30.65 21.7L-39.05 30.1Q-39.35 30.4 -39.75 30.4L-40.45 30.1L-40.75 29.4L-40.45 28.7L-32.05 20.3Q-31.75 20 -31.35 20M-48.15 36.8Q-47.75 36.8 -47.45 37.1Q-47.15 37.4 -47.15 37.8Q-47.15 38.2 -47.45 38.5L-55.85 46.9Q-56.15 47.2 -56.55 47.2L-57.25 46.9L-57.55 46.2L-57.25 45.5L-48.85 37.1Q-48.55 36.8 -48.15 36.8" />
</g>
<g id="PathID_16" transform="matrix(0.0251708, 0.911507, -0.911507, 0.0251708, 1029.7, 91.5)" opacity="1">
</g>
<g id="PathID_17" transform="matrix(0.81337, 0.412198, -0.412198, 0.81337, 1145.5, 110.45)" opacity="1">
<path style="fill:#90C2BC;fill-opacity:1" d="M36.55 -46.9L36.85 -46.2L36.55 -45.5L28.15 -37.1Q27.85 -36.8 27.45 -36.8Q27.05 -36.8 26.75 -37.1Q26.45 -37.4 26.45 -37.8Q26.45 -38.2 26.75 -38.5L35.15 -46.9L35.85 -47.2Q36.25 -47.2 36.55 -46.9M20.05 -29.4L19.75 -28.7L11.35 -20.3Q11.05 -20 10.65 -20Q10.25 -20 9.95 -20.3Q9.65 -20.6 9.65 -21Q9.65 -21.4 9.95 -21.7L18.35 -30.1L19.05 -30.4Q19.45 -30.4 19.75 -30.1L20.05 -29.4M2.25 -13.6Q2.65 -13.6 2.95 -13.3L3.25 -12.6L2.95 -11.9L-5.45 -3.5Q-5.75 -3.2 -6.15 -3.2Q-6.55 -3.2 -6.85 -3.5L-7.15 -4.2L-6.85 -4.9L1.55 -13.3L2.25 -13.6M56.5 -27.45L56.5 -28.1L57.55 -25.6L56.5 -27.45M57.6 12.6L56.5 15.25L56.5 14.55L57.6 12.6M-13.85 3.5Q-13.55 3.8 -13.55 4.2Q-13.55 4.6 -13.85 4.9L-22.25 13.3Q-22.55 13.6 -22.95 13.6L-23.65 13.3L-23.95 12.6L-23.65 11.9L-15.25 3.5Q-14.95 3.2 -14.55 3.2Q-14.15 3.2 -13.85 3.5M-31.35 20Q-30.95 20 -30.65 20.3Q-30.35 20.6 -30.35 21Q-30.35 21.4 -30.65 21.7L-39.05 30.1Q-39.35 30.4 -39.75 30.4L-40.45 30.1L-40.75 29.4L-40.45 28.7L-32.05 20.3Q-31.75 20 -31.35 20M-48.15 36.8Q-47.75 36.8 -47.45 37.1Q-47.15 37.4 -47.15 37.8Q-47.15 38.2 -47.45 38.5L-55.85 46.9Q-56.15 47.2 -56.55 47.2L-57.25 46.9L-57.55 46.2L-57.25 45.5L-48.85 37.1Q-48.55 36.8 -48.15 36.8" />
</g>
<g id="PathID_18" transform="matrix(0.81337, 0.412198, -0.412198, 0.81337, 1145.5, 110.45)" opacity="1">
</g>
<g id="PathID_19" transform="matrix(0.81337, 0.412198, -0.412198, 0.81337, 1269.15, 68.8)" opacity="1">
<path style="fill:#90C2BC;fill-opacity:1" d="M36.55 -46.9L36.85 -46.2L36.55 -45.5L28.15 -37.1Q27.85 -36.8 27.45 -36.8Q27.05 -36.8 26.75 -37.1Q26.45 -37.4 26.45 -37.8Q26.45 -38.2 26.75 -38.5L35.15 -46.9L35.85 -47.2Q36.25 -47.2 36.55 -46.9M20.05 -29.4L19.75 -28.7L11.35 -20.3Q11.05 -20 10.65 -20Q10.25 -20 9.95 -20.3Q9.65 -20.6 9.65 -21Q9.65 -21.4 9.95 -21.7L18.35 -30.1L19.05 -30.4Q19.45 -30.4 19.75 -30.1L20.05 -29.4M2.25 -13.6Q2.65 -13.6 2.95 -13.3L3.25 -12.6L2.95 -11.9L-5.45 -3.5Q-5.75 -3.2 -6.15 -3.2Q-6.55 -3.2 -6.85 -3.5L-7.15 -4.2L-6.85 -4.9L1.55 -13.3L2.25 -13.6M56.5 -27.45L56.5 -28.1L57.55 -25.6L56.5 -27.45M57.6 12.6L56.5 15.25L56.5 14.55L57.6 12.6M-13.85 3.5Q-13.55 3.8 -13.55 4.2Q-13.55 4.6 -13.85 4.9L-22.25 13.3Q-22.55 13.6 -22.95 13.6L-23.65 13.3L-23.95 12.6L-23.65 11.9L-15.25 3.5Q-14.95 3.2 -14.55 3.2Q-14.15 3.2 -13.85 3.5M-31.35 20Q-30.95 20 -30.65 20.3Q-30.35 20.6 -30.35 21Q-30.35 21.4 -30.65 21.7L-39.05 30.1Q-39.35 30.4 -39.75 30.4L-40.45 30.1L-40.75 29.4L-40.45 28.7L-32.05 20.3Q-31.75 20 -31.35 20M-48.15 36.8Q-47.75 36.8 -47.45 37.1Q-47.15 37.4 -47.15 37.8Q-47.15 38.2 -47.45 38.5L-55.85 46.9Q-56.15 47.2 -56.55 47.2L-57.25 46.9L-57.55 46.2L-57.25 45.5L-48.85 37.1Q-48.55 36.8 -48.15 36.8" />
</g>
<g id="PathID_20" transform="matrix(0.81337, 0.412198, -0.412198, 0.81337, 1269.15, 68.8)" opacity="1">
</g>
<g id="PathID_21" transform="matrix(0.882152, 0.230837, -0.230837, 0.882152, 87.8, 139.4)" opacity="1">
<path style="fill:#90C2BC;fill-opacity:1" d="M36.55 -46.9L36.85 -46.2L36.55 -45.5L28.15 -37.1Q27.85 -36.8 27.45 -36.8Q27.05 -36.8 26.75 -37.1Q26.45 -37.4 26.45 -37.8Q26.45 -38.2 26.75 -38.5L35.15 -46.9L35.85 -47.2Q36.25 -47.2 36.55 -46.9M20.05 -29.4L19.75 -28.7L11.35 -20.3Q11.05 -20 10.65 -20Q10.25 -20 9.95 -20.3Q9.65 -20.6 9.65 -21Q9.65 -21.4 9.95 -21.7L18.35 -30.1L19.05 -30.4Q19.45 -30.4 19.75 -30.1L20.05 -29.4M2.25 -13.6Q2.65 -13.6 2.95 -13.3L3.25 -12.6L2.95 -11.9L-5.45 -3.5Q-5.75 -3.2 -6.15 -3.2Q-6.55 -3.2 -6.85 -3.5L-7.15 -4.2L-6.85 -4.9L1.55 -13.3L2.25 -13.6M56.5 -27.45L56.5 -28.1L57.55 -25.6L56.5 -27.45M57.6 12.6L56.5 15.25L56.5 14.55L57.6 12.6M-13.85 3.5Q-13.55 3.8 -13.55 4.2Q-13.55 4.6 -13.85 4.9L-22.25 13.3Q-22.55 13.6 -22.95 13.6L-23.65 13.3L-23.95 12.6L-23.65 11.9L-15.25 3.5Q-14.95 3.2 -14.55 3.2Q-14.15 3.2 -13.85 3.5M-31.35 20Q-30.95 20 -30.65 20.3Q-30.35 20.6 -30.35 21Q-30.35 21.4 -30.65 21.7L-39.05 30.1Q-39.35 30.4 -39.75 30.4L-40.45 30.1L-40.75 29.4L-40.45 28.7L-32.05 20.3Q-31.75 20 -31.35 20M-48.15 36.8Q-47.75 36.8 -47.45 37.1Q-47.15 37.4 -47.15 37.8Q-47.15 38.2 -47.45 38.5L-55.85 46.9Q-56.15 47.2 -56.55 47.2L-57.25 46.9L-57.55 46.2L-57.25 45.5L-48.85 37.1Q-48.55 36.8 -48.15 36.8" />
</g>
<g id="PathID_22" transform="matrix(0.882152, 0.230837, -0.230837, 0.882152, 87.8, 139.4)" opacity="1">
</g>
<g id="PathID_23" transform="matrix(0.343282, 0.844769, -0.844769, 0.343282, 310.7, 74.3)" opacity="1">
<path style="fill:#90C2BC;fill-opacity:1" d="M36.55 -46.9L36.85 -46.2L36.55 -45.5L28.15 -37.1Q27.85 -36.8 27.45 -36.8Q27.05 -36.8 26.75 -37.1Q26.45 -37.4 26.45 -37.8Q26.45 -38.2 26.75 -38.5L35.15 -46.9L35.85 -47.2Q36.25 -47.2 36.55 -46.9M20.05 -29.4L19.75 -28.7L11.35 -20.3Q11.05 -20 10.65 -20Q10.25 -20 9.95 -20.3Q9.65 -20.6 9.65 -21Q9.65 -21.4 9.95 -21.7L18.35 -30.1L19.05 -30.4Q19.45 -30.4 19.75 -30.1L20.05 -29.4M2.25 -13.6Q2.65 -13.6 2.95 -13.3L3.25 -12.6L2.95 -11.9L-5.45 -3.5Q-5.75 -3.2 -6.15 -3.2Q-6.55 -3.2 -6.85 -3.5L-7.15 -4.2L-6.85 -4.9L1.55 -13.3L2.25 -13.6M56.5 -27.45L56.5 -28.1L57.55 -25.6L56.5 -27.45M57.6 12.6L56.5 15.25L56.5 14.55L57.6 12.6M-13.85 3.5Q-13.55 3.8 -13.55 4.2Q-13.55 4.6 -13.85 4.9L-22.25 13.3Q-22.55 13.6 -22.95 13.6L-23.65 13.3L-23.95 12.6L-23.65 11.9L-15.25 3.5Q-14.95 3.2 -14.55 3.2Q-14.15 3.2 -13.85 3.5M-31.35 20Q-30.95 20 -30.65 20.3Q-30.35 20.6 -30.35 21Q-30.35 21.4 -30.65 21.7L-39.05 30.1Q-39.35 30.4 -39.75 30.4L-40.45 30.1L-40.75 29.4L-40.45 28.7L-32.05 20.3Q-31.75 20 -31.35 20M-48.15 36.8Q-47.75 36.8 -47.45 37.1Q-47.15 37.4 -47.15 37.8Q-47.15 38.2 -47.45 38.5L-55.85 46.9Q-56.15 47.2 -56.55 47.2L-57.25 46.9L-57.55 46.2L-57.25 45.5L-48.85 37.1Q-48.55 36.8 -48.15 36.8" />
</g>
<g id="PathID_24" transform="matrix(0.343282, 0.844769, -0.844769, 0.343282, 310.7, 74.3)" opacity="1">
</g>
<g id="PathID_25" transform="matrix(0.882152, 0.230837, -0.230837, 0.882152, 200.45, 73.4)" opacity="1">
<path style="fill:#90C2BC;fill-opacity:1" d="M36.55 -46.9L36.85 -46.2L36.55 -45.5L28.15 -37.1Q27.85 -36.8 27.45 -36.8Q27.05 -36.8 26.75 -37.1Q26.45 -37.4 26.45 -37.8Q26.45 -38.2 26.75 -38.5L35.15 -46.9L35.85 -47.2Q36.25 -47.2 36.55 -46.9M20.05 -29.4L19.75 -28.7L11.35 -20.3Q11.05 -20 10.65 -20Q10.25 -20 9.95 -20.3Q9.65 -20.6 9.65 -21Q9.65 -21.4 9.95 -21.7L18.35 -30.1L19.05 -30.4Q19.45 -30.4 19.75 -30.1L20.05 -29.4M2.25 -13.6Q2.65 -13.6 2.95 -13.3L3.25 -12.6L2.95 -11.9L-5.45 -3.5Q-5.75 -3.2 -6.15 -3.2Q-6.55 -3.2 -6.85 -3.5L-7.15 -4.2L-6.85 -4.9L1.55 -13.3L2.25 -13.6M56.5 -27.45L56.5 -28.1L57.55 -25.6L56.5 -27.45M57.6 12.6L56.5 15.25L56.5 14.55L57.6 12.6M-13.85 3.5Q-13.55 3.8 -13.55 4.2Q-13.55 4.6 -13.85 4.9L-22.25 13.3Q-22.55 13.6 -22.95 13.6L-23.65 13.3L-23.95 12.6L-23.65 11.9L-15.25 3.5Q-14.95 3.2 -14.55 3.2Q-14.15 3.2 -13.85 3.5M-31.35 20Q-30.95 20 -30.65 20.3Q-30.35 20.6 -30.35 21Q-30.35 21.4 -30.65 21.7L-39.05 30.1Q-39.35 30.4 -39.75 30.4L-40.45 30.1L-40.75 29.4L-40.45 28.7L-32.05 20.3Q-31.75 20 -31.35 20M-48.15 36.8Q-47.75 36.8 -47.45 37.1Q-47.15 37.4 -47.15 37.8Q-47.15 38.2 -47.45 38.5L-55.85 46.9Q-56.15 47.2 -56.55 47.2L-57.25 46.9L-57.55 46.2L-57.25 45.5L-48.85 37.1Q-48.55 36.8 -48.15 36.8" />
</g>
<g id="PathID_26" transform="matrix(0.882152, 0.230837, -0.230837, 0.882152, 200.45, 73.4)" opacity="1">
</g>
<g id="PathID_27" transform="matrix(0.343282, 0.844769, -0.844769, 0.343282, 431.5, 124.3)" opacity="1">
<path style="fill:#90C2BC;fill-opacity:1" d="M36.55 -46.9L36.85 -46.2L36.55 -45.5L28.15 -37.1Q27.85 -36.8 27.45 -36.8Q27.05 -36.8 26.75 -37.1Q26.45 -37.4 26.45 -37.8Q26.45 -38.2 26.75 -38.5L35.15 -46.9L35.85 -47.2Q36.25 -47.2 36.55 -46.9M20.05 -29.4L19.75 -28.7L11.35 -20.3Q11.05 -20 10.65 -20Q10.25 -20 9.95 -20.3Q9.65 -20.6 9.65 -21Q9.65 -21.4 9.95 -21.7L18.35 -30.1L19.05 -30.4Q19.45 -30.4 19.75 -30.1L20.05 -29.4M2.25 -13.6Q2.65 -13.6 2.95 -13.3L3.25 -12.6L2.95 -11.9L-5.45 -3.5Q-5.75 -3.2 -6.15 -3.2Q-6.55 -3.2 -6.85 -3.5L-7.15 -4.2L-6.85 -4.9L1.55 -13.3L2.25 -13.6M56.5 -27.45L56.5 -28.1L57.55 -25.6L56.5 -27.45M57.6 12.6L56.5 15.25L56.5 14.55L57.6 12.6M-13.85 3.5Q-13.55 3.8 -13.55 4.2Q-13.55 4.6 -13.85 4.9L-22.25 13.3Q-22.55 13.6 -22.95 13.6L-23.65 13.3L-23.95 12.6L-23.65 11.9L-15.25 3.5Q-14.95 3.2 -14.55 3.2Q-14.15 3.2 -13.85 3.5M-31.35 20Q-30.95 20 -30.65 20.3Q-30.35 20.6 -30.35 21Q-30.35 21.4 -30.65 21.7L-39.05 30.1Q-39.35 30.4 -39.75 30.4L-40.45 30.1L-40.75 29.4L-40.45 28.7L-32.05 20.3Q-31.75 20 -31.35 20M-48.15 36.8Q-47.75 36.8 -47.45 37.1Q-47.15 37.4 -47.15 37.8Q-47.15 38.2 -47.45 38.5L-55.85 46.9Q-56.15 47.2 -56.55 47.2L-57.25 46.9L-57.55 46.2L-57.25 45.5L-48.85 37.1Q-48.55 36.8 -48.15 36.8" />
</g>
<g id="PathID_28" transform="matrix(0.343282, 0.844769, -0.844769, 0.343282, 431.5, 124.3)" opacity="1">
</g>
<g id="PathID_29" transform="matrix(0.787933, 0.458955, -0.458955, 0.787933, 561.1, 129.65)" opacity="1">
<path style="fill:#90C2BC;fill-opacity:1" d="M36.55 -46.9L36.85 -46.2L36.55 -45.5L28.15 -37.1Q27.85 -36.8 27.45 -36.8Q27.05 -36.8 26.75 -37.1Q26.45 -37.4 26.45 -37.8Q26.45 -38.2 26.75 -38.5L35.15 -46.9L35.85 -47.2Q36.25 -47.2 36.55 -46.9M20.05 -29.4L19.75 -28.7L11.35 -20.3Q11.05 -20 10.65 -20Q10.25 -20 9.95 -20.3Q9.65 -20.6 9.65 -21Q9.65 -21.4 9.95 -21.7L18.35 -30.1L19.05 -30.4Q19.45 -30.4 19.75 -30.1L20.05 -29.4M2.25 -13.6Q2.65 -13.6 2.95 -13.3L3.25 -12.6L2.95 -11.9L-5.45 -3.5Q-5.75 -3.2 -6.15 -3.2Q-6.55 -3.2 -6.85 -3.5L-7.15 -4.2L-6.85 -4.9L1.55 -13.3L2.25 -13.6M56.5 -27.45L56.5 -28.1L57.55 -25.6L56.5 -27.45M57.6 12.6L56.5 15.25L56.5 14.55L57.6 12.6M-13.85 3.5Q-13.55 3.8 -13.55 4.2Q-13.55 4.6 -13.85 4.9L-22.25 13.3Q-22.55 13.6 -22.95 13.6L-23.65 13.3L-23.95 12.6L-23.65 11.9L-15.25 3.5Q-14.95 3.2 -14.55 3.2Q-14.15 3.2 -13.85 3.5M-31.35 20Q-30.95 20 -30.65 20.3Q-30.35 20.6 -30.35 21Q-30.35 21.4 -30.65 21.7L-39.05 30.1Q-39.35 30.4 -39.75 30.4L-40.45 30.1L-40.75 29.4L-40.45 28.7L-32.05 20.3Q-31.75 20 -31.35 20M-48.15 36.8Q-47.75 36.8 -47.45 37.1Q-47.15 37.4 -47.15 37.8Q-47.15 38.2 -47.45 38.5L-55.85 46.9Q-56.15 47.2 -56.55 47.2L-57.25 46.9L-57.55 46.2L-57.25 45.5L-48.85 37.1Q-48.55 36.8 -48.15 36.8" />
</g>
<g id="PathID_30" transform="matrix(0.787933, 0.458955, -0.458955, 0.787933, 561.1, 129.65)" opacity="1">
</g>
<g id="PathID_31" transform="matrix(0.787933, 0.458955, -0.458955, 0.787933, 689.45, 95.1)" opacity="1">
<path style="fill:#90C2BC;fill-opacity:1" d="M36.55 -46.9L36.85 -46.2L36.55 -45.5L28.15 -37.1Q27.85 -36.8 27.45 -36.8Q27.05 -36.8 26.75 -37.1Q26.45 -37.4 26.45 -37.8Q26.45 -38.2 26.75 -38.5L35.15 -46.9L35.85 -47.2Q36.25 -47.2 36.55 -46.9M20.05 -29.4L19.75 -28.7L11.35 -20.3Q11.05 -20 10.65 -20Q10.25 -20 9.95 -20.3Q9.65 -20.6 9.65 -21Q9.65 -21.4 9.95 -21.7L18.35 -30.1L19.05 -30.4Q19.45 -30.4 19.75 -30.1L20.05 -29.4M2.25 -13.6Q2.65 -13.6 2.95 -13.3L3.25 -12.6L2.95 -11.9L-5.45 -3.5Q-5.75 -3.2 -6.15 -3.2Q-6.55 -3.2 -6.85 -3.5L-7.15 -4.2L-6.85 -4.9L1.55 -13.3L2.25 -13.6M56.5 -27.45L56.5 -28.1L57.55 -25.6L56.5 -27.45M57.6 12.6L56.5 15.25L56.5 14.55L57.6 12.6M-13.85 3.5Q-13.55 3.8 -13.55 4.2Q-13.55 4.6 -13.85 4.9L-22.25 13.3Q-22.55 13.6 -22.95 13.6L-23.65 13.3L-23.95 12.6L-23.65 11.9L-15.25 3.5Q-14.95 3.2 -14.55 3.2Q-14.15 3.2 -13.85 3.5M-31.35 20Q-30.95 20 -30.65 20.3Q-30.35 20.6 -30.35 21Q-30.35 21.4 -30.65 21.7L-39.05 30.1Q-39.35 30.4 -39.75 30.4L-40.45 30.1L-40.75 29.4L-40.45 28.7L-32.05 20.3Q-31.75 20 -31.35 20M-48.15 36.8Q-47.75 36.8 -47.45 37.1Q-47.15 37.4 -47.15 37.8Q-47.15 38.2 -47.45 38.5L-55.85 46.9Q-56.15 47.2 -56.55 47.2L-57.25 46.9L-57.55 46.2L-57.25 45.5L-48.85 37.1Q-48.55 36.8 -48.15 36.8" />
</g>
<g id="PathID_32" transform="matrix(0.787933, 0.458955, -0.458955, 0.787933, 689.45, 95.1)" opacity="1">
</g>
<g id="PathID_33" transform="matrix(0.787933, 0.458955, -0.458955, 0.787933, 817.7, 61.1)" opacity="1">
<path style="fill:#90C2BC;fill-opacity:1" d="M36.55 -46.9L36.85 -46.2L36.55 -45.5L28.15 -37.1Q27.85 -36.8 27.45 -36.8Q27.05 -36.8 26.75 -37.1Q26.45 -37.4 26.45 -37.8Q26.45 -38.2 26.75 -38.5L35.15 -46.9L35.85 -47.2Q36.25 -47.2 36.55 -46.9M20.05 -29.4L19.75 -28.7L11.35 -20.3Q11.05 -20 10.65 -20Q10.25 -20 9.95 -20.3Q9.65 -20.6 9.65 -21Q9.65 -21.4 9.95 -21.7L18.35 -30.1L19.05 -30.4Q19.45 -30.4 19.75 -30.1L20.05 -29.4M2.25 -13.6Q2.65 -13.6 2.95 -13.3L3.25 -12.6L2.95 -11.9L-5.45 -3.5Q-5.75 -3.2 -6.15 -3.2Q-6.55 -3.2 -6.85 -3.5L-7.15 -4.2L-6.85 -4.9L1.55 -13.3L2.25 -13.6M56.5 -27.45L56.5 -28.1L57.55 -25.6L56.5 -27.45M57.6 12.6L56.5 15.25L56.5 14.55L57.6 12.6M-13.85 3.5Q-13.55 3.8 -13.55 4.2Q-13.55 4.6 -13.85 4.9L-22.25 13.3Q-22.55 13.6 -22.95 13.6L-23.65 13.3L-23.95 12.6L-23.65 11.9L-15.25 3.5Q-14.95 3.2 -14.55 3.2Q-14.15 3.2 -13.85 3.5M-31.35 20Q-30.95 20 -30.65 20.3Q-30.35 20.6 -30.35 21Q-30.35 21.4 -30.65 21.7L-39.05 30.1Q-39.35 30.4 -39.75 30.4L-40.45 30.1L-40.75 29.4L-40.45 28.7L-32.05 20.3Q-31.75 20 -31.35 20M-48.15 36.8Q-47.75 36.8 -47.45 37.1Q-47.15 37.4 -47.15 37.8Q-47.15 38.2 -47.45 38.5L-55.85 46.9Q-56.15 47.2 -56.55 47.2L-57.25 46.9L-57.55 46.2L-57.25 45.5L-48.85 37.1Q-48.55 36.8 -48.15 36.8" />
</g>
<g id="PathID_34" transform="matrix(0.787933, 0.458955, -0.458955, 0.787933, 817.7, 61.1)" opacity="1">
</g>
<g id="PathID_35" transform="matrix(0.0251708, 0.911507, -0.911507, 0.0251708, 920.6, 92.05)" opacity="1">
<path style="fill:#90C2BC;fill-opacity:1" d="M36.55 -46.9L36.85 -46.2L36.55 -45.5L28.15 -37.1Q27.85 -36.8 27.45 -36.8Q27.05 -36.8 26.75 -37.1Q26.45 -37.4 26.45 -37.8Q26.45 -38.2 26.75 -38.5L35.15 -46.9L35.85 -47.2Q36.25 -47.2 36.55 -46.9M20.05 -29.4L19.75 -28.7L11.35 -20.3Q11.05 -20 10.65 -20Q10.25 -20 9.95 -20.3Q9.65 -20.6 9.65 -21Q9.65 -21.4 9.95 -21.7L18.35 -30.1L19.05 -30.4Q19.45 -30.4 19.75 -30.1L20.05 -29.4M2.25 -13.6Q2.65 -13.6 2.95 -13.3L3.25 -12.6L2.95 -11.9L-5.45 -3.5Q-5.75 -3.2 -6.15 -3.2Q-6.55 -3.2 -6.85 -3.5L-7.15 -4.2L-6.85 -4.9L1.55 -13.3L2.25 -13.6M56.5 -27.45L56.5 -28.1L57.55 -25.6L56.5 -27.45M57.6 12.6L56.5 15.25L56.5 14.55L57.6 12.6M-13.85 3.5Q-13.55 3.8 -13.55 4.2Q-13.55 4.6 -13.85 4.9L-22.25 13.3Q-22.55 13.6 -22.95 13.6L-23.65 13.3L-23.95 12.6L-23.65 11.9L-15.25 3.5Q-14.95 3.2 -14.55 3.2Q-14.15 3.2 -13.85 3.5M-31.35 20Q-30.95 20 -30.65 20.3Q-30.35 20.6 -30.35 21Q-30.35 21.4 -30.65 21.7L-39.05 30.1Q-39.35 30.4 -39.75 30.4L-40.45 30.1L-40.75 29.4L-40.45 28.7L-32.05 20.3Q-31.75 20 -31.35 20M-48.15 36.8Q-47.75 36.8 -47.45 37.1Q-47.15 37.4 -47.15 37.8Q-47.15 38.2 -47.45 38.5L-55.85 46.9Q-56.15 47.2 -56.55 47.2L-57.25 46.9L-57.55 46.2L-57.25 45.5L-48.85 37.1Q-48.55 36.8 -48.15 36.8" />
</g>
<g id="PathID_36" transform="matrix(0.0251708, 0.911507, -0.911507, 0.0251708, 920.6, 92.05)" opacity="1">
</g>
<g id="PathID_37" transform="matrix(0.81337, 0.412198, -0.412198, 0.81337, 1036.4, 111)" opacity="1">
<path style="fill:#90C2BC;fill-opacity:1" d="M36.55 -46.9L36.85 -46.2L36.55 -45.5L28.15 -37.1Q27.85 -36.8 27.45 -36.8Q27.05 -36.8 26.75 -37.1Q26.45 -37.4 26.45 -37.8Q26.45 -38.2 26.75 -38.5L35.15 -46.9L35.85 -47.2Q36.25 -47.2 36.55 -46.9M20.05 -29.4L19.75 -28.7L11.35 -20.3Q11.05 -20 10.65 -20Q10.25 -20 9.95 -20.3Q9.65 -20.6 9.65 -21Q9.65 -21.4 9.95 -21.7L18.35 -30.1L19.05 -30.4Q19.45 -30.4 19.75 -30.1L20.05 -29.4M2.25 -13.6Q2.65 -13.6 2.95 -13.3L3.25 -12.6L2.95 -11.9L-5.45 -3.5Q-5.75 -3.2 -6.15 -3.2Q-6.55 -3.2 -6.85 -3.5L-7.15 -4.2L-6.85 -4.9L1.55 -13.3L2.25 -13.6M56.5 -27.45L56.5 -28.1L57.55 -25.6L56.5 -27.45M57.6 12.6L56.5 15.25L56.5 14.55L57.6 12.6M-13.85 3.5Q-13.55 3.8 -13.55 4.2Q-13.55 4.6 -13.85 4.9L-22.25 13.3Q-22.55 13.6 -22.95 13.6L-23.65 13.3L-23.95 12.6L-23.65 11.9L-15.25 3.5Q-14.95 3.2 -14.55 3.2Q-14.15 3.2 -13.85 3.5M-31.35 20Q-30.95 20 -30.65 20.3Q-30.35 20.6 -30.35 21Q-30.35 21.4 -30.65 21.7L-39.05 30.1Q-39.35 30.4 -39.75 30.4L-40.45 30.1L-40.75 29.4L-40.45 28.7L-32.05 20.3Q-31.75 20 -31.35 20M-48.15 36.8Q-47.75 36.8 -47.45 37.1Q-47.15 37.4 -47.15 37.8Q-47.15 38.2 -47.45 38.5L-55.85 46.9Q-56.15 47.2 -56.55 47.2L-57.25 46.9L-57.55 46.2L-57.25 45.5L-48.85 37.1Q-48.55 36.8 -48.15 36.8" />
</g>
<g id="PathID_38" transform="matrix(0.81337, 0.412198, -0.412198, 0.81337, 1036.4, 111)" opacity="1">
</g>
<g id="PathID_39" transform="matrix(0.81337, 0.412198, -0.412198, 0.81337, 1160.05, 69.35)" opacity="1">
<path style="fill:#90C2BC;fill-opacity:1" d="M36.55 -46.9L36.85 -46.2L36.55 -45.5L28.15 -37.1Q27.85 -36.8 27.45 -36.8Q27.05 -36.8 26.75 -37.1Q26.45 -37.4 26.45 -37.8Q26.45 -38.2 26.75 -38.5L35.15 -46.9L35.85 -47.2Q36.25 -47.2 36.55 -46.9M20.05 -29.4L19.75 -28.7L11.35 -20.3Q11.05 -20 10.65 -20Q10.25 -20 9.95 -20.3Q9.65 -20.6 9.65 -21Q9.65 -21.4 9.95 -21.7L18.35 -30.1L19.05 -30.4Q19.45 -30.4 19.75 -30.1L20.05 -29.4M2.25 -13.6Q2.65 -13.6 2.95 -13.3L3.25 -12.6L2.95 -11.9L-5.45 -3.5Q-5.75 -3.2 -6.15 -3.2Q-6.55 -3.2 -6.85 -3.5L-7.15 -4.2L-6.85 -4.9L1.55 -13.3L2.25 -13.6M56.5 -27.45L56.5 -28.1L57.55 -25.6L56.5 -27.45M57.6 12.6L56.5 15.25L56.5 14.55L57.6 12.6M-13.85 3.5Q-13.55 3.8 -13.55 4.2Q-13.55 4.6 -13.85 4.9L-22.25 13.3Q-22.55 13.6 -22.95 13.6L-23.65 13.3L-23.95 12.6L-23.65 11.9L-15.25 3.5Q-14.95 3.2 -14.55 3.2Q-14.15 3.2 -13.85 3.5M-31.35 20Q-30.95 20 -30.65 20.3Q-30.35 20.6 -30.35 21Q-30.35 21.4 -30.65 21.7L-39.05 30.1Q-39.35 30.4 -39.75 30.4L-40.45 30.1L-40.75 29.4L-40.45 28.7L-32.05 20.3Q-31.75 20 -31.35 20M-48.15 36.8Q-47.75 36.8 -47.45 37.1Q-47.15 37.4 -47.15 37.8Q-47.15 38.2 -47.45 38.5L-55.85 46.9Q-56.15 47.2 -56.55 47.2L-57.25 46.9L-57.55 46.2L-57.25 45.5L-48.85 37.1Q-48.55 36.8 -48.15 36.8" />
</g>
<g id="PathID_40" transform="matrix(0.81337, 0.412198, -0.412198, 0.81337, 1160.05, 69.35)" opacity="1">
</g>
</svg>
