<?xml version="1.0" encoding="utf-8"?>
<svg version="1.1" id="Layer_1"
xmlns="http://www.w3.org/2000/svg"
xmlns:xlink="http://www.w3.org/1999/xlink"
width="529px" height="301px"
xml:space="preserve">
<g id="PathID_1" transform="matrix(1.94044, 0, 0, 1.94044, 3.65, 5)" opacity="1">
<path style="fill:#869795;fill-opacity:1" d="M41 19.1L40.75 19.2L40.75 19.25L40.85 19.25L41 19.1M26.8 103.55L26.8 103.75L26.85 103.7Q31.45 112.85 38.6 118.95Q36.75 112.95 39.65 107.55Q42.55 101.85 48.6 100L38.9 119.15L39.15 119.35L49.1 100.1Q51.15 106.05 48.25 111.7Q45.45 117.35 39.45 119.35L39.15 119.35Q43.1 122.65 47.85 125Q51.15 126.65 55.15 127.95L61.65 107.35Q64.65 112.95 62.75 119Q60.9 125 55.35 127.95L55.25 128.1L65 130.65L78.4 133.3Q86.25 135.4 93 140.4Q96.45 142.9 98.25 145.05L94.05 148.45Q93.35 146.05 90.05 143.2Q83.55 137.6 71.4 136.15Q58.35 134.65 48.8 130.3L51.05 131.6L51.25 131.75L23.95 136.5Q28.4 129.85 36.4 128.45Q42.2 127.4 47.25 129.5Q42.9 127.4 39.3 124.65Q29.05 116.8 23.6 104.1L3.6 96Q9.3 93.5 15.3 95.75Q20.6 97.75 23.05 102.75Q20.15 95.2 18.9 86.25L0.5 75.15Q6.55 73.5 12.05 76.75Q16.6 79.5 18.55 84.25Q17.65 77.25 17.65 69.45L6 53.6Q11.65 54.5 15.1 58.95Q17.4 62.15 17.7 65.8Q18.75 51.4 26.55 36.95L26.35 36.9Q21.3 35.05 19.15 30Q16.95 25.1 18.9 20L26.55 36.95L26.8 36.55L19.25 19.95L19.45 19.95Q24.5 21.8 26.7 26.75Q28.6 31.05 27.45 35.45Q29.1 32.55 31.1 29.6L32.55 27.6L28.6 11.85L28.7 11.85Q32.75 14.3 33.85 18.95Q34.95 22.95 33.25 26.55Q36.55 21.95 39.85 18.35L37.5 3.35Q41.1 5.9 41.85 10.3Q42.55 14.5 40.2 18.05L44.6 13.6L44.95 13.4L44.85 13.25Q43.6 9 45.7 5.1Q47.95 1.25 52.15 0L44.95 13.4L45.15 13.55L52.45 0.25Q53.65 4.45 51.6 8.45Q49.45 12.3 45.3 13.6L45.15 13.6L44.75 14.7Q42.7 16.75 41 19.1Q43.65 16.1 47.85 15.85Q51.9 15.6 55.15 18.5L40.85 19.25Q37.6 22.5 34.9 26.2Q37.45 24.35 40.85 24.3Q45.5 24 49.1 27.25L33.65 28Q33.45 28.1 33.45 28.35L49.1 27.65Q46 31.25 41.3 31.45Q36.6 31.65 33.25 28.7Q30.9 32 28.75 35.65L27.9 37.45Q31.25 33.25 36.55 32.55Q42 31.85 46.2 35.3L27.8 37.5Q15.8 59.9 20.7 85.7Q22.7 95.75 26.8 103.5Q27.4 97.15 32.2 93.15Q37.1 89.15 43.45 89.55L26.85 103.7L26.8 103.55M40.6 19.6L55 18.85Q52.25 21.95 48.05 22.3Q43.95 22.5 40.75 19.75L40.6 19.6M28.25 11.85L32.15 27.65L32 27.6Q28.05 25.05 26.9 20.5Q25.8 15.95 28.25 11.85M39.45 18.3Q35.85 15.6 35.25 11.2Q34.55 6.7 37.1 3.2L39.5 18.3L39.45 18.3M10.65 33.6L19.7 50.95L19.45 50.95Q14.05 49.15 11.5 44.05Q8.9 38.95 10.65 33.6M19.25 40.2Q21.95 45.25 20.15 50.7L20.15 50.95L11.25 33.45Q16.6 35.2 19.25 40.2M27.9 38L46.35 35.75Q43.1 40 37.8 40.75Q32.35 41.45 28.05 38.15L27.9 38M37.2 59.8L19.8 68.95L19.8 68.75Q21.65 63.3 26.7 60.7Q31.7 58.05 37.1 59.8L37.2 59.8M20.4 69.3L20.15 69.3L37.5 60.15L37.5 60.2Q35.85 65.65 30.8 68.35Q25.8 70.95 20.4 69.3M22.55 50.95Q25.6 46.15 31.1 44.9Q36.6 43.65 41.5 46.6L22.35 51.15L22.55 50.95M22.7 51.5L41.7 47.05Q38.75 51.95 33.25 53.25Q27.7 54.6 22.8 51.65L22.7 51.5M16.95 69.45Q11.3 68.6 8 64Q4.7 59.3 5.6 53.7L17.15 69.5L16.95 69.45M0 75.5L18.75 86.6L18.55 86.75Q12.4 88.25 7 84.9Q1.6 81.7 0 75.5M21.05 85.9L21.15 85.7Q22.7 79.65 28.15 76.4Q33.55 73.15 39.8 74.75L21.05 85.9M33.25 84.45Q27.9 87.8 21.65 86.25L21.5 86.25L40.05 75.1Q38.6 81.25 33.25 84.45M78.25 121.9Q80.2 127.2 77.7 132.45L77.6 132.5L71.15 114.05Q76.25 116.6 78.25 121.9M61.3 107L54.8 127.75L54.7 127.55Q51.85 122.05 53.65 116.05Q55.7 109.95 61.25 107L61.3 107M50.95 132.65Q46.25 139.2 38.35 140.6Q30.35 141.95 23.8 137.25L23.8 137.15L51.15 132.45L50.95 132.65M70.05 124.85Q68.2 119.55 70.75 114.4L77.25 132.85L77 132.8Q72 130.3 70.05 124.85M75.05 138.3Q72.4 145.4 65.55 148.35Q58.8 151.45 51.7 148.8L51.7 148.7L75.15 138.1L75.05 138.3M74.8 137.4L75.15 137.5L51.7 148.15Q54.25 141.05 61.1 137.95Q67.85 134.85 74.8 137.4M27.25 103.9L43.85 89.9Q43.45 96.25 38.55 100.25Q33.8 104.45 27.45 103.9L27.25 103.9M23.15 104.45Q17.4 106.95 11.5 104.6Q5.8 102.3 3.25 96.45L23.4 104.45L23.15 104.45M33.25 120.05L10.65 115.55Q16.15 111.85 22.8 113.05Q29.3 114.4 33.1 119.9L33.25 120.05M32.75 120.7Q27.25 124.3 20.6 123Q14.05 121.7 10.3 116.05L32.95 120.6L32.75 120.7" />
</g>
<g id="PathID_2" transform="matrix(1.94044, 0, 0, 1.94044, 3.65, 5)" opacity="1">
</g>
<g id="PathID_3" transform="matrix(-1.94044, -1.69639e-007, 0, 1.94044, 525.15, 4.95)" opacity="1">
<path style="fill:#869795;fill-opacity:1" d="M41 19.1L40.75 19.2L40.75 19.25L40.85 19.25L41 19.1M26.8 103.55L26.8 103.75L26.85 103.7Q31.45 112.85 38.6 118.95Q36.75 112.95 39.65 107.55Q42.55 101.85 48.6 100L38.9 119.15L39.15 119.35L49.1 100.1Q51.15 106.05 48.25 111.7Q45.45 117.35 39.45 119.35L39.15 119.35Q43.1 122.65 47.85 125Q51.15 126.65 55.15 127.95L61.65 107.35Q64.65 112.95 62.75 119Q60.9 125 55.35 127.95L55.25 128.1L65 130.65L78.4 133.3Q86.25 135.4 93 140.4Q96.45 142.9 98.25 145.05L94.05 148.45Q93.35 146.05 90.05 143.2Q83.55 137.6 71.4 136.15Q58.35 134.65 48.8 130.3L51.05 131.6L51.25 131.75L23.95 136.5Q28.4 129.85 36.4 128.45Q42.2 127.4 47.25 129.5Q42.9 127.4 39.3 124.65Q29.05 116.8 23.6 104.1L3.6 96Q9.3 93.5 15.3 95.75Q20.6 97.75 23.05 102.75Q20.15 95.2 18.9 86.25L0.5 75.15Q6.55 73.5 12.05 76.75Q16.6 79.5 18.55 84.25Q17.65 77.25 17.65 69.45L6 53.6Q11.65 54.5 15.1 58.95Q17.4 62.15 17.7 65.8Q18.75 51.4 26.55 36.95L26.35 36.9Q21.3 35.05 19.15 30Q16.95 25.1 18.9 20L26.55 36.95L26.8 36.55L19.25 19.95L19.45 19.95Q24.5 21.8 26.7 26.75Q28.6 31.05 27.45 35.45Q29.1 32.55 31.1 29.6L32.55 27.6L28.6 11.85L28.7 11.85Q32.75 14.3 33.85 18.95Q34.95 22.95 33.25 26.55Q36.55 21.95 39.85 18.35L37.5 3.35Q41.1 5.9 41.85 10.3Q42.55 14.5 40.2 18.05L44.6 13.6L44.95 13.4L44.85 13.25Q43.6 9 45.7 5.1Q47.95 1.25 52.15 0L44.95 13.4L45.15 13.55L52.45 0.25Q53.65 4.45 51.6 8.45Q49.45 12.3 45.3 13.6L45.15 13.6L44.75 14.7Q42.7 16.75 41 19.1Q43.65 16.1 47.85 15.85Q51.9 15.6 55.15 18.5L40.85 19.25Q37.6 22.5 34.9 26.2Q37.45 24.35 40.85 24.3Q45.5 24 49.1 27.25L33.65 28Q33.45 28.1 33.45 28.35L49.1 27.65Q46 31.25 41.3 31.45Q36.6 31.65 33.25 28.7Q30.9 32 28.75 35.65L27.9 37.45Q31.25 33.25 36.55 32.55Q42 31.85 46.2 35.3L27.8 37.5Q15.8 59.9 20.7 85.7Q22.7 95.75 26.8 103.5Q27.4 97.15 32.2 93.15Q37.1 89.15 43.45 89.55L26.85 103.7L26.8 103.55M40.6 19.6L55 18.85Q52.25 21.95 48.05 22.3Q43.95 22.5 40.75 19.75L40.6 19.6M28.25 11.85L32.15 27.65L32 27.6Q28.05 25.05 26.9 20.5Q25.8 15.95 28.25 11.85M39.45 18.3Q35.85 15.6 35.25 11.2Q34.55 6.7 37.1 3.2L39.5 18.3L39.45 18.3M10.65 33.6L19.7 50.95L19.45 50.95Q14.05 49.15 11.5 44.05Q8.9 38.95 10.65 33.6M19.25 40.2Q21.95 45.25 20.15 50.7L20.15 50.95L11.25 33.45Q16.6 35.2 19.25 40.2M27.9 38L46.35 35.75Q43.1 40 37.8 40.75Q32.35 41.45 28.05 38.15L27.9 38M37.2 59.8L19.8 68.95L19.8 68.75Q21.65 63.3 26.7 60.7Q31.7 58.05 37.1 59.8L37.2 59.8M20.4 69.3L20.15 69.3L37.5 60.15L37.5 60.2Q35.85 65.65 30.8 68.35Q25.8 70.95 20.4 69.3M22.55 50.95Q25.6 46.15 31.1 44.9Q36.6 43.65 41.5 46.6L22.35 51.15L22.55 50.95M22.7 51.5L41.7 47.05Q38.75 51.95 33.25 53.25Q27.7 54.6 22.8 51.65L22.7 51.5M16.95 69.45Q11.3 68.6 8 64Q4.7 59.3 5.6 53.7L17.15 69.5L16.95 69.45M0 75.5L18.75 86.6L18.55 86.75Q12.4 88.25 7 84.9Q1.6 81.7 0 75.5M21.05 85.9L21.15 85.7Q22.7 79.65 28.15 76.4Q33.55 73.15 39.8 74.75L21.05 85.9M33.25 84.45Q27.9 87.8 21.65 86.25L21.5 86.25L40.05 75.1Q38.6 81.25 33.25 84.45M78.25 121.9Q80.2 127.2 77.7 132.45L77.6 132.5L71.15 114.05Q76.25 116.6 78.25 121.9M61.3 107L54.8 127.75L54.7 127.55Q51.85 122.05 53.65 116.05Q55.7 109.95 61.25 107L61.3 107M50.95 132.65Q46.25 139.2 38.35 140.6Q30.35 141.95 23.8 137.25L23.8 137.15L51.15 132.45L50.95 132.65M70.05 124.85Q68.2 119.55 70.75 114.4L77.25 132.85L77 132.8Q72 130.3 70.05 124.85M75.05 138.3Q72.4 145.4 65.55 148.35Q58.8 151.45 51.7 148.8L51.7 148.7L75.15 138.1L75.05 138.3M74.8 137.4L75.15 137.5L51.7 148.15Q54.25 141.05 61.1 137.95Q67.85 134.85 74.8 137.4M27.25 103.9L43.85 89.9Q43.45 96.25 38.55 100.25Q33.8 104.45 27.45 103.9L27.25 103.9M23.15 104.45Q17.4 106.95 11.5 104.6Q5.8 102.3 3.25 96.45L23.4 104.45L23.15 104.45M33.25 120.05L10.65 115.55Q16.15 111.85 22.8 113.05Q29.3 114.4 33.1 119.9L33.25 120.05M32.75 120.7Q27.25 124.3 20.6 123Q14.05 121.7 10.3 116.05L32.95 120.6L32.75 120.7" />
</g>
<g id="PathID_4" transform="matrix(-1.94044, -1.69639e-007, 0, 1.94044, 525.15, 4.95)" opacity="1">
</g>
<g id="PathID_5" transform="matrix(2.64615, -0.0177279, 0.00544361, 0.81254, 265.1, 187.7)" opacity="1">
<path style="fill:#869795;fill-opacity:1" d="M52.2 -0.7L52.5 0L52.2 0.7L51.5 1L-51.5 1L-52.2 0.7L-52.5 0L-52.2 -0.7L-51.5 -1L51.5 -1L52.2 -0.7" />
</g>
<g id="PathID_6" transform="matrix(2.64615, -0.0177279, 0.00544361, 0.81254, 265.1, 187.7)" opacity="1">
</g>
<g id="PathID_7" transform="matrix(0.864289, 0, 0, 0.864289, 125.8, 92.5)" opacity="1">
<path style="fill:#869795;fill-opacity:1" d="M4.5 -37L9.75 -37L9.75 -13.65Q9.75 -7.55 12 -5.3Q14.3 -3.05 18.35 -3.05Q20.95 -3.05 22.7 -3.9Q24.5 -4.8 25.45 -6.8Q26.45 -8.8 26.45 -13.5L26.45 -37L31.05 -37L31.05 -13.55Q31.05 -7.5 29.55 -4.85Q28.05 -2.2 25.35 -0.65Q22.65 0.9 18.15 0.9Q13.4 0.9 10.45 -0.7Q7.5 -2.3 6 -5.1Q4.5 -7.95 4.5 -13.7L4.5 -37" />
</g>
<g id="PathID_8" transform="matrix(0.864289, 0, 0, 0.864289, 125.8, 92.5)" opacity="1">
</g>
<g id="PathID_9" transform="matrix(0.864289, 0, 0, 0.864289, 156.4, 92.5)" opacity="1">
<path style="fill:#869795;fill-opacity:1" d="M3.9 -1L3.9 -5.55Q8.7 -3.1 12.25 -3.1Q14.35 -3.1 15.75 -4.2Q17.2 -5.35 17.2 -7.1Q17.2 -8.15 16.45 -9.2Q15.75 -10.2 13.25 -11.25L10.35 -12.5Q7.05 -13.85 5.5 -15.7Q4 -17.5 4 -20.1Q4 -23.4 6.35 -25.55Q8.75 -27.75 13.45 -27.75Q15.7 -27.75 19.1 -27.1L20.15 -26.9L20.15 -22.75Q15.95 -24.05 13.5 -24.05Q11.1 -24.05 9.9 -23Q8.75 -22 8.75 -20.6Q8.75 -19.5 9.55 -18.6Q10.3 -17.7 12.35 -16.85L14.7 -15.85Q19.5 -13.8 20.8 -11.85Q22.15 -9.85 22.15 -7.55Q22.15 -5.3 20.9 -3.4Q19.7 -1.5 17.35 -0.45Q15 0.6 12.1 0.6Q8.7 0.6 3.9 -1" />
</g>
<g id="PathID_10" transform="matrix(0.864289, 0, 0, 0.864289, 156.4, 92.5)" opacity="1">
</g>
<g id="PathID_11" transform="matrix(0.864289, 0, 0, 0.864289, 178.9, 92.5)" opacity="1">
<path style="fill:#869795;fill-opacity:1" d="M25.1 -0.85Q20.05 0.6 16.5 0.6Q10.1 0.6 6.45 -3.65Q2.8 -7.9 2.8 -13.7Q2.8 -17.5 4.4 -20.95Q6 -24.4 8.6 -26.05Q11.25 -27.75 14.8 -27.75Q19.55 -27.75 22.4 -24.35Q25.25 -21 25.25 -14.25L25.2 -12.8L7.85 -12.8Q8.25 -9.15 9.4 -7.2Q10.55 -5.25 12.5 -4.15Q14.45 -3.1 17.45 -3.1Q18.95 -3.1 20.45 -3.35Q21.95 -3.6 25.1 -4.75L25.1 -0.85M8.1 -16.5L20.3 -16.5Q20.3 -20.55 18.65 -22.3Q17.05 -24.05 14.5 -24.05Q11.65 -24.05 10 -22.15Q8.4 -20.25 8.1 -16.5" />
</g>
<g id="PathID_12" transform="matrix(0.864289, 0, 0, 0.864289, 178.9, 92.5)" opacity="1">
</g>
<g id="PathID_13" transform="matrix(0.864289, 0, 0, 0.864289, 203.55, 92.5)" opacity="1">
<path style="fill:#869795;fill-opacity:1" d="M4.95 0L4.95 -27.15L9.9 -27.15L9.9 -22.05Q11.3 -24.75 13.5 -26.25Q15.75 -27.75 18.4 -27.75Q19.15 -27.75 20 -27.6L20 -23Q18.7 -23.5 17.7 -23.5Q15.4 -23.5 13.4 -22.1Q11.45 -20.7 9.9 -17.9L9.9 0L4.95 0" />
</g>
<g id="PathID_14" transform="matrix(0.864289, 0, 0, 0.864289, 203.55, 92.5)" opacity="1">
</g>
<g id="PathID_15" transform="matrix(0.864289, 0, 0, 0.864289, 235.5, 92.5)" opacity="1">
<path style="fill:#869795;fill-opacity:1" d="M4.8 0L4.8 -37L16 -37Q22.2 -37 24.6 -34.2Q27 -31.4 27 -27.8Q27 -25.7 26.15 -23.65Q25.3 -21.6 23.75 -20Q22.2 -18.4 19.55 -17.3L31.85 0L25.45 0L14.9 -15.65L10.05 -15.65L10.05 0L4.8 0M10.05 -19.6L11.7 -19.6Q17.55 -19.6 19.55 -22Q21.6 -24.4 21.6 -27.3Q21.6 -29 20.8 -30.3Q20.05 -31.6 18.45 -32.3Q16.85 -33.05 13.3 -33.05L10.05 -33.05L10.05 -19.6" />
</g>
<g id="PathID_16" transform="matrix(0.864289, 0, 0, 0.864289, 235.5, 92.5)" opacity="1">
</g>
<g id="PathID_17" transform="matrix(0.864289, 0, 0, 0.864289, 263.45, 92.5)" opacity="1">
<path style="fill:#869795;fill-opacity:1" d="M25.1 -0.85Q20.05 0.6 16.5 0.6Q10.1 0.6 6.45 -3.65Q2.8 -7.9 2.8 -13.7Q2.8 -17.5 4.4 -20.95Q6 -24.4 8.6 -26.05Q11.25 -27.75 14.8 -27.75Q19.55 -27.75 22.4 -24.35Q25.25 -21 25.25 -14.25L25.2 -12.8L7.85 -12.8Q8.25 -9.15 9.4 -7.2Q10.55 -5.25 12.5 -4.15Q14.45 -3.1 17.45 -3.1Q18.95 -3.1 20.45 -3.35Q21.95 -3.6 25.1 -4.75L25.1 -0.85M8.1 -16.5L20.3 -16.5Q20.3 -20.55 18.65 -22.3Q17.05 -24.05 14.5 -24.05Q11.65 -24.05 10 -22.15Q8.4 -20.25 8.1 -16.5" />
</g>
<g id="PathID_18" transform="matrix(0.864289, 0, 0, 0.864289, 263.45, 92.5)" opacity="1">
</g>
<g id="PathID_19" transform="matrix(0.864289, 0, 0, 0.864289, 288.05, 92.5)" opacity="1">
<path style="fill:#869795;fill-opacity:1" d="M10.65 0L0.45 -27.15L5.35 -27.15L13.3 -6.1L21.65 -27.15L26.25 -27.15L15.55 0L10.65 0" />
</g>
<g id="PathID_20" transform="matrix(0.864289, 0, 0, 0.864289, 288.05, 92.5)" opacity="1">
</g>
<g id="PathID_21" transform="matrix(0.864289, 0, 0, 0.864289, 310.95, 92.5)" opacity="1">
<path style="fill:#869795;fill-opacity:1" d="M4.95 0L4.95 -27.15L9.9 -27.15L9.9 0L4.95 0M4.95 -32.1L4.95 -37.05L9.9 -37.05L9.9 -32.1L4.95 -32.1" />
</g>
<g id="PathID_22" transform="matrix(0.864289, 0, 0, 0.864289, 310.95, 92.5)" opacity="1">
</g>
<g id="PathID_23" transform="matrix(0.864289, 0, 0, 0.864289, 323.65, 92.5)" opacity="1">
<path style="fill:#869795;fill-opacity:1" d="M25.1 -0.85Q20.05 0.6 16.5 0.6Q10.1 0.6 6.45 -3.65Q2.8 -7.9 2.8 -13.7Q2.8 -17.5 4.4 -20.95Q6 -24.4 8.6 -26.05Q11.25 -27.75 14.8 -27.75Q19.55 -27.75 22.4 -24.35Q25.25 -21 25.25 -14.25L25.2 -12.8L7.85 -12.8Q8.25 -9.15 9.4 -7.2Q10.55 -5.25 12.5 -4.15Q14.45 -3.1 17.45 -3.1Q18.95 -3.1 20.45 -3.35Q21.95 -3.6 25.1 -4.75L25.1 -0.85M8.1 -16.5L20.3 -16.5Q20.3 -20.55 18.65 -22.3Q17.05 -24.05 14.5 -24.05Q11.65 -24.05 10 -22.15Q8.4 -20.25 8.1 -16.5" />
</g>
<g id="PathID_24" transform="matrix(0.864289, 0, 0, 0.864289, 323.65, 92.5)" opacity="1">
</g>
<g id="PathID_25" transform="matrix(0.864289, 0, 0, 0.864289, 348.25, 92.5)" opacity="1">
<path style="fill:#869795;fill-opacity:1" d="M8.05 0L0.3 -27.15L5.15 -27.15L11.1 -6.05L17.5 -27.15L22.45 -27.15L28.05 -6.1L34.9 -27.15L39.1 -27.15L30.25 0L25.25 0L19.55 -21.05L13.1 0L8.05 0" />
</g>
<g id="PathID_26" transform="matrix(0.864289, 0, 0, 0.864289, 348.25, 92.5)" opacity="1">
</g>
<g id="PathID_27" transform="matrix(0.864289, 0, 0, 0.864289, 382.3, 92.5)" opacity="1">
<path style="fill:#869795;fill-opacity:1" d="M3.9 -1L3.9 -5.55Q8.7 -3.1 12.25 -3.1Q14.35 -3.1 15.75 -4.2Q17.2 -5.35 17.2 -7.1Q17.2 -8.15 16.45 -9.2Q15.75 -10.2 13.25 -11.25L10.35 -12.5Q7.05 -13.85 5.5 -15.7Q4 -17.5 4 -20.1Q4 -23.4 6.35 -25.55Q8.75 -27.75 13.45 -27.75Q15.7 -27.75 19.1 -27.1L20.15 -26.9L20.15 -22.75Q15.95 -24.05 13.5 -24.05Q11.1 -24.05 9.9 -23Q8.75 -22 8.75 -20.6Q8.75 -19.5 9.55 -18.6Q10.3 -17.7 12.35 -16.85L14.7 -15.85Q19.5 -13.8 20.8 -11.85Q22.15 -9.85 22.15 -7.55Q22.15 -5.3 20.9 -3.4Q19.7 -1.5 17.35 -0.45Q15 0.6 12.1 0.6Q8.7 0.6 3.9 -1" />
</g>
<g id="PathID_28" transform="matrix(0.864289, 0, 0, 0.864289, 382.3, 92.5)" opacity="1">
</g>
<g id="PathID_29" transform="matrix(0.622512, 0, 0, 0.622512, 219.3, 234.3)" opacity="1">
<path style="fill:#869795;fill-opacity:1" d="M9.5 -31.35Q9.05 -31.35 8.7 -31Q8.4 -30.65 8.4 -30.2L8.4 -6.65Q8.4 -6.2 8.7 -5.85Q9.05 -5.5 9.5 -5.5L39.6 -5.5L39.6 0L9.5 0Q8.15 0 6.95 -0.5Q5.75 -1 4.8 -1.95Q3.9 -2.85 3.35 -4.05Q2.85 -5.25 2.85 -6.65L2.85 -30.2Q2.85 -31.6 3.35 -32.8Q3.9 -34 4.8 -34.9Q5.75 -35.85 6.95 -36.35Q8.15 -36.85 9.5 -36.85L39.6 -36.85L39.6 -31.35L9.5 -31.35" />
</g>
<g id="PathID_30" transform="matrix(0.622512, 0, 0, 0.622512, 219.3, 234.3)" opacity="1">
</g>
<g id="PathID_31" transform="matrix(0.622512, 0, 0, 0.622512, 245.45, 234.3)" opacity="1">
<path style="fill:#869795;fill-opacity:1" d="M32.35 -11.35L32.35 -11.25L32.35 5.1Q32.35 6.5 31.85 7.7Q31.3 8.9 30.4 9.8Q29.45 10.75 28.25 11.25Q27.05 11.75 25.7 11.75L7.35 11.75L7.35 6.25L25.7 6.25Q26.15 6.25 26.5 5.9Q26.8 5.55 26.8 5.1L26.8 0L8.8 0Q7.4 0 6.2 -0.5Q5 -1 4.1 -1.95Q3.15 -2.85 2.65 -4.05Q2.15 -5.25 2.15 -6.65L2.15 -29.6L7.65 -29.6L7.65 -6.65Q7.65 -6.2 8 -5.85Q8.35 -5.5 8.8 -5.5L25.7 -5.5Q26.15 -5.5 26.5 -5.85Q26.8 -6.2 26.8 -6.65L26.8 -29.6L32.35 -29.6L32.35 -11.35" />
</g>
<g id="PathID_32" transform="matrix(0.622512, 0, 0, 0.622512, 245.45, 234.3)" opacity="1">
</g>
<g id="PathID_33" transform="matrix(0.622512, 0, 0, 0.622512, 267.2, 234.3)" opacity="1">
<path style="fill:#869795;fill-opacity:1" d="M26.3 -29.7Q27.7 -29.7 28.9 -29.2Q30.1 -28.65 31 -27.75Q31.95 -26.8 32.45 -25.6Q32.95 -24.4 32.95 -23.05L32.95 -6.65Q32.95 -5.25 32.45 -4.05Q31.95 -2.85 31 -1.95Q30.1 -1 28.9 -0.5Q27.7 0 26.3 0L2.75 0L2.75 -39.4L8.3 -39.4L8.3 -29.7L26.3 -29.7M27.45 -23.05Q27.45 -23.5 27.1 -23.85Q26.75 -24.15 26.3 -24.15L9.4 -24.15Q8.95 -24.15 8.6 -23.85Q8.3 -23.5 8.3 -23.05L8.3 -6.65Q8.3 -6.2 8.6 -5.85Q8.95 -5.5 9.4 -5.5L26.3 -5.5Q26.75 -5.5 27.1 -5.85Q27.45 -6.2 27.45 -6.65L27.45 -23.05" />
</g>
<g id="PathID_34" transform="matrix(0.622512, 0, 0, 0.622512, 267.2, 234.3)" opacity="1">
</g>
<g id="PathID_35" transform="matrix(0.622512, 0, 0, 0.622512, 288.45, 234.3)" opacity="1">
<path style="fill:#869795;fill-opacity:1" d="M26.15 -29.7Q27.55 -29.7 28.75 -29.2Q29.95 -28.65 30.85 -27.75Q31.8 -26.8 32.3 -25.6Q32.8 -24.4 32.8 -23.05L32.8 -12.05L8.1 -12.05L8.1 -6.65Q8.1 -6.2 8.45 -5.85Q8.8 -5.5 9.25 -5.5L32.8 -5.5L32.8 0L9.25 0Q7.85 0 6.65 -0.5Q5.45 -1 4.55 -1.95Q3.6 -2.85 3.1 -4.05Q2.6 -5.25 2.6 -6.65L2.6 -23.05Q2.6 -24.4 3.1 -25.6Q3.6 -26.8 4.55 -27.75Q5.45 -28.65 6.65 -29.2Q7.85 -29.7 9.25 -29.7L26.15 -29.7M27.3 -17.6L27.3 -23.05Q27.3 -23.5 26.95 -23.85Q26.6 -24.15 26.15 -24.15L9.25 -24.15Q8.8 -24.15 8.45 -23.85Q8.1 -23.5 8.1 -23.05L8.1 -17.6L27.3 -17.6" />
</g>
<g id="PathID_36" transform="matrix(0.622512, 0, 0, 0.622512, 288.45, 234.3)" opacity="1">
</g>
<g id="PathID_37" transform="matrix(0.622512, 0, 0, 0.622512, 310.5, 234.3)" opacity="1">
<path style="fill:#869795;fill-opacity:1" d="M25.9 -29.7L25.9 -24.15L9.3 -24.15Q8.85 -24.15 8.5 -23.85Q8.2 -23.5 8.2 -23.05L8.2 0L2.65 0L2.65 -6.65L2.65 -23.05Q2.65 -24.4 3.15 -25.6Q3.7 -26.8 4.6 -27.75Q5.55 -28.65 6.75 -29.2Q7.95 -29.7 9.3 -29.7L25.9 -29.7" />
</g>
<g id="PathID_38" transform="matrix(0.622512, 0, 0, 0.622512, 310.5, 234.3)" opacity="1">
</g>
<g id="PathID_39" transform="matrix(0.622512, 0, 0, 0.622512, 326.8, 234.3)" opacity="1">
<path style="fill:#869795;fill-opacity:1" d="M2.65 -29.7L8.2 -29.7L8.2 0L2.65 0L2.65 -29.7M8.2 -39.4L8.2 -33.9L2.65 -33.9L2.65 -39.4L8.2 -39.4" />
</g>
<g id="PathID_40" transform="matrix(0.622512, 0, 0, 0.622512, 326.8, 234.3)" opacity="1">
</g>
<g id="PathID_41" transform="matrix(0.622512, 0, 0, 0.622512, 333.35, 234.3)" opacity="1">
<path style="fill:#869795;fill-opacity:1" d="M26.2 -29.7Q27.6 -29.7 28.8 -29.2Q30 -28.65 30.9 -27.75Q31.85 -26.8 32.35 -25.6Q32.85 -24.4 32.85 -23.05L32.85 0L9.3 0Q7.95 0 6.75 -0.5Q5.55 -1 4.6 -1.95Q3.7 -2.85 3.15 -4.05Q2.65 -5.25 2.65 -6.65L2.65 -17.6L27.35 -17.6L27.35 -23.05Q27.35 -23.5 27 -23.85Q26.65 -24.15 26.2 -24.15L2.65 -24.15L2.65 -29.7L26.2 -29.7M27.35 -12.05L8.2 -12.05L8.2 -6.65Q8.2 -6.2 8.5 -5.85Q8.85 -5.5 9.3 -5.5L27.35 -5.5L27.35 -12.05" />
</g>
<g id="PathID_42" transform="matrix(0.622512, 0, 0, 0.622512, 333.35, 234.3)" opacity="1">
</g>
<g id="PathID_43" transform="matrix(0.277418, 0, 0, 0.277418, 170.6, 202.5)" opacity="1">
<path style="fill:#869795;fill-opacity:1" d="M143.6 45.75Q140 53.1 132.35 56.05Q127.95 53.9 122.75 53.9L119.55 54.1Q125.5 49.1 128.1 42.4Q137.25 41.1 143.6 45.75M120.25 14.8Q122.65 19.35 121.85 23.95Q121.3 27.1 118.8 30.9Q109.9 31.65 103.7 36.85Q106.9 28.45 105.55 21Q109.35 18 112.05 16.7Q116.05 14.7 120.25 14.8M99.2 13.55Q103.35 20.8 102.25 28.8Q101.45 34.55 97.65 41.7Q90.7 36.6 83.35 34.5Q83.75 28.25 87.65 23.15Q91.45 18.1 99.2 13.55M90 7.45Q90.9 10.65 90.5 15.25Q84.15 20.45 81.5 26.9Q80.9 18 77.15 12.65Q78.2 5.15 84.95 0Q88.75 3.15 90 7.45M121.4 34.3L126.35 34.65Q125.05 48.4 110.35 55.95Q107.1 49.9 101.45 44.85Q107.75 34.3 121.4 34.3M92.15 69.1Q92 73.15 90.4 77.3Q88.9 81.2 86.4 84.05Q83.95 86.8 81.1 87.8L77.2 88.5Q71.1 88.5 64.9 83.95Q58.8 79.45 57.2 73.85Q55.95 69.1 59.3 63.6Q62.5 58.4 67.15 56.4Q70.6 54.9 75.15 54.9Q79.9 54.9 84.1 56.65Q88.8 58.6 90.7 62.15Q92.25 65 92.15 69.1M93.75 60.5Q91.6 56.4 86.55 53.9Q81.45 51.45 75.15 51.45Q69.9 51.45 65.8 53.2Q60.05 55.7 56.2 62.1Q52.25 68.75 53.85 74.75Q55.75 81.55 62.8 86.75Q69.9 91.95 77.2 91.95Q79.7 91.95 82.2 91.05Q85.85 89.8 88.8 86.45Q91.9 83.2 93.7 78.55Q95.55 73.6 95.65 68.9Q95.65 64.1 93.75 60.5M112.65 79.05Q121.2 82.05 124.85 85.8Q129.95 90.9 130.95 101.2Q127.95 102.3 124.6 102.3Q119.6 102.3 114.4 100.15Q109.2 98 104.8 94.25L105.35 93.65Q110.6 87.5 112.65 79.05M102.65 91.4Q97.85 97.1 90.4 100.65Q83 104.15 75.6 104.15L69.55 103.45Q59.2 100.95 50.75 92.15Q41.7 82.85 41.4 72.8Q41.15 61.25 50.25 50.15Q59.4 39 70.9 37L74.7 36.7Q84.3 36.7 94.15 43.45Q104.05 50.2 108.35 59.65Q111.5 66.45 109.8 75.7Q108.2 84.9 102.65 91.4M112.1 59.65Q117.95 57.35 122.75 57.35Q130.65 57.35 137.35 63.75Q128.65 76.55 113.55 74.45Q114.6 66.4 112.1 59.65M127.1 83.05Q124.25 80.2 119.8 78.15Q128.65 77.5 135.3 71.4Q141.15 73.7 143.85 75.75Q147.55 78.7 150 83.9Q145.35 87.95 142.4 89.75Q138.1 92.4 134.55 92.4L132.7 92.25Q130.85 86.75 127.1 83.05M76.5 19Q78.35 23.95 78.2 33.45L74.7 33.25L70.25 33.6Q66.45 34.2 62.5 36.1Q59.7 29.05 60.05 23.6Q60.55 16 66.7 9Q74 11.95 76.5 19M59.15 14.05Q55.75 20.95 56.8 28.7Q51.45 22 44.25 19.55Q43.85 14.4 44.4 11.15Q45.15 6.6 48.1 2.8Q54.95 6 59.15 14.05M47.05 48.75Q31.35 38.45 35.3 21.55Q50.05 21.55 58.8 38.1Q52.1 42.2 47.05 48.75M34.95 49.2Q37.45 50 41.85 52L44 53Q39.4 60.25 38.2 67.9Q22.5 65.5 15.5 52Q21.9 47.95 27.8 47.95Q31.15 47.95 34.95 49.2M21.8 28.5Q25.8 28.5 31.2 30.45Q32.05 40.1 39.55 47.2Q32.8 44.5 27.85 44.5Q24.4 44.5 20.7 45.7Q14.45 37.9 13.9 30.3Q17.85 28.5 21.8 28.5M15.35 59.8L16.45 59.85Q22.5 67.15 31.95 70.05Q21.4 72 15.3 77.8Q5.9 75.55 0 67.35Q4.3 59.8 15.35 59.8M22.1 77.1Q28.55 73.5 37.95 72.85Q38.15 80.7 43.15 88.35Q35.35 92.05 28.65 92.05Q20.4 92.05 13.2 86.7Q15.65 80.7 22.1 77.1M38.2 94Q31.6 101.55 30.25 110.05Q24.6 112.35 20.35 112.35Q15.5 112.35 10.6 109.9Q13.7 99.1 19.45 93.9Q28.35 96.95 38.2 94M62.75 104.75Q65.9 106.15 68.75 106.75L81.45 107.1Q82 115.2 79 121.9Q76.1 128.65 69.45 134.55Q54.35 120.2 62.75 104.75M56.5 112.4Q55.3 121.1 60.55 129.3Q56 135.95 47.6 138.75Q41.05 131.3 43.15 121.35Q50.25 119.2 56.5 112.4M35.35 104.8Q38.35 97.65 45.6 91.7Q51.35 98.7 59.3 103Q49.05 119.05 35.65 119.05L34 119Q32.3 112 35.35 104.8M128.95 123.4Q116.95 123.8 111.95 119.05Q113.85 108.9 110.6 102.3Q117.55 105.8 124.55 105.8L124.9 105.8Q130.4 113.25 128.95 123.4M89.3 146.15Q84.35 143.75 81.5 139.2Q79.45 135.8 78.05 130.4Q83.6 122.75 84.7 114.05Q88.8 124 96.6 127.95Q97.1 139.55 89.3 146.15M93.5 121.35Q88.55 116.45 85.6 106.05Q94.95 103.35 101.9 97.2Q108.4 102.2 109.1 109.9Q109.75 116.2 106.35 127.05Q98.35 126.35 93.5 121.35" />
</g>
<g id="PathID_44" transform="matrix(0.277418, 0, 0, 0.277418, 170.6, 202.5)" opacity="1">
</g>
<g id="PathID_45" transform="matrix(0.286574, 0, 0, 0.286574, 151.05, 149.55)" opacity="1">
<path style="fill:#869795;fill-opacity:1" d="M25.15 -26.15L83.75 -18.7L40.6 21.65L51.65 79.65L-0.05 51.1L-51.8 79.5L-40.7 21.55L-83.7 -18.95L-25.1 -26.2L0.1 -79.6L25.15 -26.15" />
</g>
<g id="PathID_46" transform="matrix(0.286574, 0, 0, 0.286574, 151.05, 149.55)" opacity="1">
</g>
<g id="PathID_47" transform="matrix(0.286574, 0, 0, 0.286574, 208.05, 149.55)" opacity="1">
<path style="fill:#869795;fill-opacity:1" d="M25.15 -26.15L83.75 -18.7L40.6 21.65L51.65 79.65L-0.05 51.1L-51.8 79.5L-40.7 21.55L-83.7 -18.95L-25.1 -26.2L0.1 -79.6L25.15 -26.15" />
</g>
<g id="PathID_48" transform="matrix(0.286574, 0, 0, 0.286574, 208.05, 149.55)" opacity="1">
</g>
<g id="PathID_49" transform="matrix(0.286574, 0, 0, 0.286574, 264.9, 149.55)" opacity="1">
<path style="fill:#869795;fill-opacity:1" d="M25.15 -26.15L83.75 -18.7L40.6 21.65L51.65 79.65L-0.05 51.1L-51.8 79.5L-40.7 21.55L-83.7 -18.95L-25.1 -26.2L0.1 -79.6L25.15 -26.15" />
</g>
<g id="PathID_50" transform="matrix(0.286574, 0, 0, 0.286574, 264.9, 149.55)" opacity="1">
</g>
<g id="PathID_51" transform="matrix(0.286574, 0, 0, 0.286574, 322, 149.55)" opacity="1">
<path style="fill:#869795;fill-opacity:1" d="M25.15 -26.15L83.75 -18.7L40.6 21.65L51.65 79.65L-0.05 51.1L-51.8 79.5L-40.7 21.55L-83.7 -18.95L-25.1 -26.2L0.1 -79.6L25.15 -26.15" />
</g>
<g id="PathID_52" transform="matrix(0.286574, 0, 0, 0.286574, 322, 149.55)" opacity="1">
</g>
<g id="PathID_53" transform="matrix(0.286574, 0, 0, 0.286574, 379.35, 149.55)" opacity="1">
<path style="fill:#BCBCBC;fill-opacity:0.298039" d="M-2.35 -74.4L0.1 -79.6L25.15 -26.15L83.75 -18.7L40.6 21.65L51.65 79.65L-0.05 51.1L-2.35 -74.4" />
</g>
<g id="PathID_54" transform="matrix(0.286574, 0, 0, 0.286574, 379.35, 149.55)" opacity="1">
</g>
<g id="PathID_55" transform="matrix(0.286574, 0, 0, 0.286574, 379.35, 149.55)" opacity="1">
<path style="fill:#869795;fill-opacity:1" d="M-2.35 -74.4L-0.05 51.1L-51.8 79.5L-40.7 21.55L-83.7 -18.95L-25.1 -26.2L-2.35 -74.4" />
</g>
<g id="PathID_56" transform="matrix(0.286574, 0, 0, 0.286574, 379.35, 149.55)" opacity="1">
</g>
</svg>
