<?xml version="1.0" encoding="utf-8"?>
<svg version="1.1" id="Layer_1"
xmlns="http://www.w3.org/2000/svg"
xmlns:xlink="http://www.w3.org/1999/xlink"
width="529px" height="301px"
xml:space="preserve">
<g id="PathID_1" transform="matrix(1.94044, 0, 0, 1.94044, 3.65, 5)" opacity="1">
<path style="fill:#869795;fill-opacity:1" d="M41 19.1L40.75 19.2L40.75 19.25L40.85 19.25L41 19.1M26.8 103.55L26.8 103.75L26.85 103.7Q31.45 112.85 38.6 118.95Q36.75 112.95 39.65 107.55Q42.55 101.85 48.6 100L38.9 119.15L39.15 119.35L49.1 100.1Q51.15 106.05 48.25 111.7Q45.45 117.35 39.45 119.35L39.15 119.35Q43.1 122.65 47.85 125Q51.15 126.65 55.15 127.95L61.65 107.35Q64.65 112.95 62.75 119Q60.9 125 55.35 127.95L55.25 128.1L65 130.65L78.4 133.3Q86.25 135.4 93 140.4Q96.45 142.9 98.25 145.05L94.05 148.45Q93.35 146.05 90.05 143.2Q83.55 137.6 71.4 136.15Q58.35 134.65 48.8 130.3L51.05 131.6L51.25 131.75L23.95 136.5Q28.4 129.85 36.4 128.45Q42.2 127.4 47.25 129.5Q42.9 127.4 39.3 124.65Q29.05 116.8 23.6 104.1L3.6 96Q9.3 93.5 15.3 95.75Q20.6 97.75 23.05 102.75Q20.15 95.2 18.9 86.25L0.5 75.15Q6.55 73.5 12.05 76.75Q16.6 79.5 18.55 84.25Q17.65 77.25 17.65 69.45L6 53.6Q11.65 54.5 15.1 58.95Q17.4 62.15 17.7 65.8Q18.75 51.4 26.55 36.95L26.35 36.9Q21.3 35.05 19.15 30Q16.95 25.1 18.9 20L26.55 36.95L26.8 36.55L19.25 19.95L19.45 19.95Q24.5 21.8 26.7 26.75Q28.6 31.05 27.45 35.45Q29.1 32.55 31.1 29.6L32.55 27.6L28.6 11.85L28.7 11.85Q32.75 14.3 33.85 18.95Q34.95 22.95 33.25 26.55Q36.55 21.95 39.85 18.35L37.5 3.35Q41.1 5.9 41.85 10.3Q42.55 14.5 40.2 18.05L44.6 13.6L44.95 13.4L44.85 13.25Q43.6 9 45.7 5.1Q47.95 1.25 52.15 0L44.95 13.4L45.15 13.55L52.45 0.25Q53.65 4.45 51.6 8.45Q49.45 12.3 45.3 13.6L45.15 13.6L44.75 14.7Q42.7 16.75 41 19.1Q43.65 16.1 47.85 15.85Q51.9 15.6 55.15 18.5L40.85 19.25Q37.6 22.5 34.9 26.2Q37.45 24.35 40.85 24.3Q45.5 24 49.1 27.25L33.65 28Q33.45 28.1 33.45 28.35L49.1 27.65Q46 31.25 41.3 31.45Q36.6 31.65 33.25 28.7Q30.9 32 28.75 35.65L27.9 37.45Q31.25 33.25 36.55 32.55Q42 31.85 46.2 35.3L27.8 37.5Q15.8 59.9 20.7 85.7Q22.7 95.75 26.8 103.5Q27.4 97.15 32.2 93.15Q37.1 89.15 43.45 89.55L26.85 103.7L26.8 103.55M40.6 19.6L55 18.85Q52.25 21.95 48.05 22.3Q43.95 22.5 40.75 19.75L40.6 19.6M28.25 11.85L32.15 27.65L32 27.6Q28.05 25.05 26.9 20.5Q25.8 15.95 28.25 11.85M39.45 18.3Q35.85 15.6 35.25 11.2Q34.55 6.7 37.1 3.2L39.5 18.3L39.45 18.3M10.65 33.6L19.7 50.95L19.45 50.95Q14.05 49.15 11.5 44.05Q8.9 38.95 10.65 33.6M19.25 40.2Q21.95 45.25 20.15 50.7L20.15 50.95L11.25 33.45Q16.6 35.2 19.25 40.2M27.9 38L46.35 35.75Q43.1 40 37.8 40.75Q32.35 41.45 28.05 38.15L27.9 38M37.2 59.8L19.8 68.95L19.8 68.75Q21.65 63.3 26.7 60.7Q31.7 58.05 37.1 59.8L37.2 59.8M20.4 69.3L20.15 69.3L37.5 60.15L37.5 60.2Q35.85 65.65 30.8 68.35Q25.8 70.95 20.4 69.3M22.55 50.95Q25.6 46.15 31.1 44.9Q36.6 43.65 41.5 46.6L22.35 51.15L22.55 50.95M22.7 51.5L41.7 47.05Q38.75 51.95 33.25 53.25Q27.7 54.6 22.8 51.65L22.7 51.5M16.95 69.45Q11.3 68.6 8 64Q4.7 59.3 5.6 53.7L17.15 69.5L16.95 69.45M0 75.5L18.75 86.6L18.55 86.75Q12.4 88.25 7 84.9Q1.6 81.7 0 75.5M21.05 85.9L21.15 85.7Q22.7 79.65 28.15 76.4Q33.55 73.15 39.8 74.75L21.05 85.9M33.25 84.45Q27.9 87.8 21.65 86.25L21.5 86.25L40.05 75.1Q38.6 81.25 33.25 84.45M78.25 121.9Q80.2 127.2 77.7 132.45L77.6 132.5L71.15 114.05Q76.25 116.6 78.25 121.9M61.3 107L54.8 127.75L54.7 127.55Q51.85 122.05 53.65 116.05Q55.7 109.95 61.25 107L61.3 107M50.95 132.65Q46.25 139.2 38.35 140.6Q30.35 141.95 23.8 137.25L23.8 137.15L51.15 132.45L50.95 132.65M70.05 124.85Q68.2 119.55 70.75 114.4L77.25 132.85L77 132.8Q72 130.3 70.05 124.85M75.05 138.3Q72.4 145.4 65.55 148.35Q58.8 151.45 51.7 148.8L51.7 148.7L75.15 138.1L75.05 138.3M74.8 137.4L75.15 137.5L51.7 148.15Q54.25 141.05 61.1 137.95Q67.85 134.85 74.8 137.4M27.25 103.9L43.85 89.9Q43.45 96.25 38.55 100.25Q33.8 104.45 27.45 103.9L27.25 103.9M23.15 104.45Q17.4 106.95 11.5 104.6Q5.8 102.3 3.25 96.45L23.4 104.45L23.15 104.45M33.25 120.05L10.65 115.55Q16.15 111.85 22.8 113.05Q29.3 114.4 33.1 119.9L33.25 120.05M32.75 120.7Q27.25 124.3 20.6 123Q14.05 121.7 10.3 116.05L32.95 120.6L32.75 120.7" />
</g>
<g id="PathID_2" transform="matrix(1.94044, 0, 0, 1.94044, 3.65, 5)" opacity="1">
</g>
<g id="PathID_3" transform="matrix(-1.94044, -1.69639e-007, 0, 1.94044, 525.15, 4.95)" opacity="1">
<path style="fill:#869795;fill-opacity:1" d="M41 19.1L40.75 19.2L40.75 19.25L40.85 19.25L41 19.1M26.8 103.55L26.8 103.75L26.85 103.7Q31.45 112.85 38.6 118.95Q36.75 112.95 39.65 107.55Q42.55 101.85 48.6 100L38.9 119.15L39.15 119.35L49.1 100.1Q51.15 106.05 48.25 111.7Q45.45 117.35 39.45 119.35L39.15 119.35Q43.1 122.65 47.85 125Q51.15 126.65 55.15 127.95L61.65 107.35Q64.65 112.95 62.75 119Q60.9 125 55.35 127.95L55.25 128.1L65 130.65L78.4 133.3Q86.25 135.4 93 140.4Q96.45 142.9 98.25 145.05L94.05 148.45Q93.35 146.05 90.05 143.2Q83.55 137.6 71.4 136.15Q58.35 134.65 48.8 130.3L51.05 131.6L51.25 131.75L23.95 136.5Q28.4 129.85 36.4 128.45Q42.2 127.4 47.25 129.5Q42.9 127.4 39.3 124.65Q29.05 116.8 23.6 104.1L3.6 96Q9.3 93.5 15.3 95.75Q20.6 97.75 23.05 102.75Q20.15 95.2 18.9 86.25L0.5 75.15Q6.55 73.5 12.05 76.75Q16.6 79.5 18.55 84.25Q17.65 77.25 17.65 69.45L6 53.6Q11.65 54.5 15.1 58.95Q17.4 62.15 17.7 65.8Q18.75 51.4 26.55 36.95L26.35 36.9Q21.3 35.05 19.15 30Q16.95 25.1 18.9 20L26.55 36.95L26.8 36.55L19.25 19.95L19.45 19.95Q24.5 21.8 26.7 26.75Q28.6 31.05 27.45 35.45Q29.1 32.55 31.1 29.6L32.55 27.6L28.6 11.85L28.7 11.85Q32.75 14.3 33.85 18.95Q34.95 22.95 33.25 26.55Q36.55 21.95 39.85 18.35L37.5 3.35Q41.1 5.9 41.85 10.3Q42.55 14.5 40.2 18.05L44.6 13.6L44.95 13.4L44.85 13.25Q43.6 9 45.7 5.1Q47.95 1.25 52.15 0L44.95 13.4L45.15 13.55L52.45 0.25Q53.65 4.45 51.6 8.45Q49.45 12.3 45.3 13.6L45.15 13.6L44.75 14.7Q42.7 16.75 41 19.1Q43.65 16.1 47.85 15.85Q51.9 15.6 55.15 18.5L40.85 19.25Q37.6 22.5 34.9 26.2Q37.45 24.35 40.85 24.3Q45.5 24 49.1 27.25L33.65 28Q33.45 28.1 33.45 28.35L49.1 27.65Q46 31.25 41.3 31.45Q36.6 31.65 33.25 28.7Q30.9 32 28.75 35.65L27.9 37.45Q31.25 33.25 36.55 32.55Q42 31.85 46.2 35.3L27.8 37.5Q15.8 59.9 20.7 85.7Q22.7 95.75 26.8 103.5Q27.4 97.15 32.2 93.15Q37.1 89.15 43.45 89.55L26.85 103.7L26.8 103.55M40.6 19.6L55 18.85Q52.25 21.95 48.05 22.3Q43.95 22.5 40.75 19.75L40.6 19.6M28.25 11.85L32.15 27.65L32 27.6Q28.05 25.05 26.9 20.5Q25.8 15.95 28.25 11.85M39.45 18.3Q35.85 15.6 35.25 11.2Q34.55 6.7 37.1 3.2L39.5 18.3L39.45 18.3M10.65 33.6L19.7 50.95L19.45 50.95Q14.05 49.15 11.5 44.05Q8.9 38.95 10.65 33.6M19.25 40.2Q21.95 45.25 20.15 50.7L20.15 50.95L11.25 33.45Q16.6 35.2 19.25 40.2M27.9 38L46.35 35.75Q43.1 40 37.8 40.75Q32.35 41.45 28.05 38.15L27.9 38M37.2 59.8L19.8 68.95L19.8 68.75Q21.65 63.3 26.7 60.7Q31.7 58.05 37.1 59.8L37.2 59.8M20.4 69.3L20.15 69.3L37.5 60.15L37.5 60.2Q35.85 65.65 30.8 68.35Q25.8 70.95 20.4 69.3M22.55 50.95Q25.6 46.15 31.1 44.9Q36.6 43.65 41.5 46.6L22.35 51.15L22.55 50.95M22.7 51.5L41.7 47.05Q38.75 51.95 33.25 53.25Q27.7 54.6 22.8 51.65L22.7 51.5M16.95 69.45Q11.3 68.6 8 64Q4.7 59.3 5.6 53.7L17.15 69.5L16.95 69.45M0 75.5L18.75 86.6L18.55 86.75Q12.4 88.25 7 84.9Q1.6 81.7 0 75.5M21.05 85.9L21.15 85.7Q22.7 79.65 28.15 76.4Q33.55 73.15 39.8 74.75L21.05 85.9M33.25 84.45Q27.9 87.8 21.65 86.25L21.5 86.25L40.05 75.1Q38.6 81.25 33.25 84.45M78.25 121.9Q80.2 127.2 77.7 132.45L77.6 132.5L71.15 114.05Q76.25 116.6 78.25 121.9M61.3 107L54.8 127.75L54.7 127.55Q51.85 122.05 53.65 116.05Q55.7 109.95 61.25 107L61.3 107M50.95 132.65Q46.25 139.2 38.35 140.6Q30.35 141.95 23.8 137.25L23.8 137.15L51.15 132.45L50.95 132.65M70.05 124.85Q68.2 119.55 70.75 114.4L77.25 132.85L77 132.8Q72 130.3 70.05 124.85M75.05 138.3Q72.4 145.4 65.55 148.35Q58.8 151.45 51.7 148.8L51.7 148.7L75.15 138.1L75.05 138.3M74.8 137.4L75.15 137.5L51.7 148.15Q54.25 141.05 61.1 137.95Q67.85 134.85 74.8 137.4M27.25 103.9L43.85 89.9Q43.45 96.25 38.55 100.25Q33.8 104.45 27.45 103.9L27.25 103.9M23.15 104.45Q17.4 106.95 11.5 104.6Q5.8 102.3 3.25 96.45L23.4 104.45L23.15 104.45M33.25 120.05L10.65 115.55Q16.15 111.85 22.8 113.05Q29.3 114.4 33.1 119.9L33.25 120.05M32.75 120.7Q27.25 124.3 20.6 123Q14.05 121.7 10.3 116.05L32.95 120.6L32.75 120.7" />
</g>
<g id="PathID_4" transform="matrix(-1.94044, -1.69639e-007, 0, 1.94044, 525.15, 4.95)" opacity="1">
</g>
<g id="PathID_5" transform="matrix(2.64615, -0.0177279, 0.00544361, 0.81254, 265.1, 187.7)" opacity="1">
<path style="fill:#869795;fill-opacity:1" d="M52.2 -0.7L52.5 0L52.2 0.7L51.5 1L-51.5 1L-52.2 0.7L-52.5 0L-52.2 -0.7L-51.5 -1L51.5 -1L52.2 -0.7" />
</g>
<g id="PathID_6" transform="matrix(2.64615, -0.0177279, 0.00544361, 0.81254, 265.1, 187.7)" opacity="1">
</g>
<g id="PathID_7" transform="matrix(1.04744, 0, 0, 1.04744, 123.85, 159.35)" opacity="1">
<path style="fill:#869795;fill-opacity:1" d="M4.65 0L4.65 -37L28.3 -37L28.3 -31.9L12.35 -31.9L12.35 -21.6L25.5 -21.6L25.5 -16.5L12.35 -16.5L12.35 -5.25L29.5 -5.25L29.5 0L4.65 0" />
</g>
<g id="PathID_8" transform="matrix(1.04744, 0, 0, 1.04744, 123.85, 159.35)" opacity="1">
</g>
<g id="PathID_9" transform="matrix(1.04744, 0, 0, 1.04744, 153.8, 159.35)" opacity="1">
<path style="fill:#869795;fill-opacity:1" d="M1.7 0L11.1 -13.75L2.1 -27.45L10.5 -27.45L16.4 -18.7L22.1 -27.45L28.1 -27.45L19.4 -13.95L28.7 0L20.25 0L14.1 -9.05L7.75 0L1.7 0" />
</g>
<g id="PathID_10" transform="matrix(1.04744, 0, 0, 1.04744, 153.8, 159.35)" opacity="1">
</g>
<g id="PathID_11" transform="matrix(1.04744, 0, 0, 1.04744, 183.15, 159.35)" opacity="1">
<path style="fill:#869795;fill-opacity:1" d="M4.65 9.9L4.65 -27.45L12.05 -27.45L12.05 -22.2Q13.45 -25.1 15.65 -26.55Q17.85 -28.05 20.85 -28.05Q25.85 -28.05 28.6 -24.3Q31.35 -20.55 31.35 -14.45Q31.35 -8 28.25 -3.7Q25.2 0.6 19.75 0.6Q18.3 0.6 17.05 0.3Q15.8 0 14.65 -0.65Q13.55 -1.3 12.05 -2.8L12.05 9.9L4.65 9.9M12.05 -7.15Q13.55 -5.4 14.9 -4.8Q16.25 -4.2 17.6 -4.2Q20.55 -4.2 22 -7.1Q23.45 -10 23.45 -13.8Q23.45 -17.7 22.05 -19.95Q20.7 -22.2 18.15 -22.2Q16.55 -22.2 14.95 -21.05Q13.4 -19.9 12.05 -17.95L12.05 -7.15" />
</g>
<g id="PathID_12" transform="matrix(1.04744, 0, 0, 1.04744, 183.15, 159.35)" opacity="1">
</g>
<g id="PathID_13" transform="matrix(1.04744, 0, 0, 1.04744, 216.45, 159.35)" opacity="1">
<path style="fill:#869795;fill-opacity:1" d="M26.9 -0.95Q21.65 0.6 16.95 0.6Q12.45 0.6 9.1 -1.05Q5.8 -2.7 4 -6.2Q2.2 -9.75 2.2 -13.9Q2.2 -17.75 3.7 -21Q5.25 -24.25 8.15 -26.15Q11.1 -28.05 15.35 -28.05Q20.6 -28.05 23.75 -24.7Q26.9 -21.35 26.9 -12.25L10 -12.25Q10.2 -9.45 11.2 -7.85Q12.25 -6.3 13.95 -5.35Q15.65 -4.45 18.55 -4.45Q22.25 -4.45 26.9 -6.15L26.9 -0.95M9.85 -16.45L19.6 -16.45Q19.6 -20.15 18.35 -21.75Q17.1 -23.4 15.1 -23.4Q12.95 -23.4 11.55 -21.6Q10.15 -19.85 9.85 -16.45" />
</g>
<g id="PathID_14" transform="matrix(1.04744, 0, 0, 1.04744, 216.45, 159.35)" opacity="1">
</g>
<g id="PathID_15" transform="matrix(1.04744, 0, 0, 1.04744, 245.65, 159.35)" opacity="1">
<path style="fill:#869795;fill-opacity:1" d="M4.65 0L4.65 -27.45L12.05 -27.45L12.05 -22.25Q13.35 -24.9 15.65 -26.45Q17.95 -28.05 20.8 -28.05L22.2 -27.95L22.2 -21.3Q20.6 -21.85 19.25 -21.85Q17.05 -21.85 15.25 -20.7Q13.45 -19.6 12.05 -17.4L12.05 0L4.65 0" />
</g>
<g id="PathID_16" transform="matrix(1.04744, 0, 0, 1.04744, 245.65, 159.35)" opacity="1">
</g>
<g id="PathID_17" transform="matrix(1.04744, 0, 0, 1.04744, 267.75, 159.35)" opacity="1">
<path style="fill:#869795;fill-opacity:1" d="M4.65 0L4.65 -27.45L12.05 -27.45L12.05 0L4.65 0M4.65 -32.1L4.65 -38.3L12.05 -38.3L12.05 -32.1L4.65 -32.1" />
</g>
<g id="PathID_18" transform="matrix(1.04744, 0, 0, 1.04744, 267.75, 159.35)" opacity="1">
</g>
<g id="PathID_19" transform="matrix(1.04744, 0, 0, 1.04744, 282.95, 159.35)" opacity="1">
<path style="fill:#869795;fill-opacity:1" d="M26.9 -0.95Q21.65 0.6 16.95 0.6Q12.45 0.6 9.1 -1.05Q5.8 -2.7 4 -6.2Q2.2 -9.75 2.2 -13.9Q2.2 -17.75 3.7 -21Q5.25 -24.25 8.15 -26.15Q11.1 -28.05 15.35 -28.05Q20.6 -28.05 23.75 -24.7Q26.9 -21.35 26.9 -12.25L10 -12.25Q10.2 -9.45 11.2 -7.85Q12.25 -6.3 13.95 -5.35Q15.65 -4.45 18.55 -4.45Q22.25 -4.45 26.9 -6.15L26.9 -0.95M9.85 -16.45L19.6 -16.45Q19.6 -20.15 18.35 -21.75Q17.1 -23.4 15.1 -23.4Q12.95 -23.4 11.55 -21.6Q10.15 -19.85 9.85 -16.45" />
</g>
<g id="PathID_20" transform="matrix(1.04744, 0, 0, 1.04744, 282.95, 159.35)" opacity="1">
</g>
<g id="PathID_21" transform="matrix(1.04744, 0, 0, 1.04744, 312.1, 159.35)" opacity="1">
<path style="fill:#869795;fill-opacity:1" d="M4.65 0L4.65 -27.45L12.05 -27.45L12.05 -22.2Q14.05 -25.4 16.45 -26.7Q18.9 -28.05 21.4 -28.05Q24.65 -28.05 27 -25.95Q29.35 -23.85 29.35 -19.35L29.35 0L21.95 0L21.95 -17.5Q21.95 -19.75 21.5 -20.55Q21.1 -21.35 20.35 -21.75Q19.65 -22.2 18.8 -22.2Q17.25 -22.2 15.6 -21.15Q13.95 -20.15 12.05 -17.2L12.05 0L4.65 0" />
</g>
<g id="PathID_22" transform="matrix(1.04744, 0, 0, 1.04744, 312.1, 159.35)" opacity="1">
</g>
<g id="PathID_23" transform="matrix(1.04744, 0, 0, 1.04744, 345.05, 159.35)" opacity="1">
<path style="fill:#869795;fill-opacity:1" d="M24.7 -0.65Q20.1 0.6 16.2 0.6Q9.2 0.6 5.7 -3.55Q2.2 -7.7 2.2 -13.75Q2.2 -20.05 5.9 -24.05Q9.6 -28.05 16.8 -28.05Q20.1 -28.05 24.45 -26.95L24.45 -21.6Q19.95 -23.1 17.3 -23.1Q13.55 -23.1 11.8 -20.2Q10.1 -17.3 10.1 -13.8Q10.1 -11.1 11.1 -8.75Q12.1 -6.45 13.9 -5.4Q15.7 -4.35 17.95 -4.35Q21.2 -4.35 24.7 -5.75L24.7 -0.65" />
</g>
<g id="PathID_24" transform="matrix(1.04744, 0, 0, 1.04744, 345.05, 159.35)" opacity="1">
</g>
<g id="PathID_25" transform="matrix(1.04744, 0, 0, 1.04744, 371.3, 159.35)" opacity="1">
<path style="fill:#869795;fill-opacity:1" d="M26.9 -0.95Q21.65 0.6 16.95 0.6Q12.45 0.6 9.1 -1.05Q5.8 -2.7 4 -6.2Q2.2 -9.75 2.2 -13.9Q2.2 -17.75 3.7 -21Q5.25 -24.25 8.15 -26.15Q11.1 -28.05 15.35 -28.05Q20.6 -28.05 23.75 -24.7Q26.9 -21.35 26.9 -12.25L10 -12.25Q10.2 -9.45 11.2 -7.85Q12.25 -6.3 13.95 -5.35Q15.65 -4.45 18.55 -4.45Q22.25 -4.45 26.9 -6.15L26.9 -0.95M9.85 -16.45L19.6 -16.45Q19.6 -20.15 18.35 -21.75Q17.1 -23.4 15.1 -23.4Q12.95 -23.4 11.55 -21.6Q10.15 -19.85 9.85 -16.45" />
</g>
<g id="PathID_26" transform="matrix(1.04744, 0, 0, 1.04744, 371.3, 159.35)" opacity="1">
</g>
<g id="PathID_27" transform="matrix(1.04744, 0, 0, 1.04744, 142.85, 100.25)" opacity="1">
<path style="fill:#869795;fill-opacity:1" d="M4.65 0L4.65 -37L17.1 -37Q21.65 -37 23.8 -35.95Q25.95 -34.95 27.2 -32.95Q28.45 -31 28.45 -28.75Q28.45 -25.95 26.5 -23.4Q24.55 -20.9 19.55 -19.3Q23.5 -18.35 25.6 -16.9Q27.75 -15.45 28.85 -13.45Q29.95 -11.45 29.95 -9.15Q29.95 -6.65 28.65 -4.45Q27.35 -2.3 25.1 -1.15Q22.9 0 18.25 0L4.65 0M12.05 -21.6L13.65 -21.6Q17.15 -21.6 18.85 -23.3Q20.6 -25.05 20.6 -27.55Q20.6 -28.85 20.05 -29.8Q19.55 -30.8 18.25 -31.35Q17 -31.9 13.4 -31.9L12.05 -31.9L12.05 -21.6M12.05 -5.25L13.5 -5.25Q17.5 -5.25 18.95 -5.75Q20.4 -6.3 21.15 -7.45Q21.9 -8.65 21.9 -10.05Q21.9 -12.8 19.45 -14.7Q17.05 -16.65 13.35 -16.65L12.05 -16.65L12.05 -5.25" />
</g>
<g id="PathID_28" transform="matrix(1.04744, 0, 0, 1.04744, 142.85, 100.25)" opacity="1">
</g>
<g id="PathID_29" transform="matrix(1.04744, 0, 0, 1.04744, 174.35, 100.25)" opacity="1">
<path style="fill:#869795;fill-opacity:1" d="M26.9 -0.95Q21.65 0.6 16.95 0.6Q12.45 0.6 9.1 -1.05Q5.8 -2.7 4 -6.2Q2.2 -9.75 2.2 -13.9Q2.2 -17.75 3.7 -21Q5.25 -24.25 8.15 -26.15Q11.1 -28.05 15.35 -28.05Q20.6 -28.05 23.75 -24.7Q26.9 -21.35 26.9 -12.25L10 -12.25Q10.2 -9.45 11.2 -7.85Q12.25 -6.3 13.95 -5.35Q15.65 -4.45 18.55 -4.45Q22.25 -4.45 26.9 -6.15L26.9 -0.95M9.85 -16.45L19.6 -16.45Q19.6 -20.15 18.35 -21.75Q17.1 -23.4 15.1 -23.4Q12.95 -23.4 11.55 -21.6Q10.15 -19.85 9.85 -16.45" />
</g>
<g id="PathID_30" transform="matrix(1.04744, 0, 0, 1.04744, 174.35, 100.25)" opacity="1">
</g>
<g id="PathID_31" transform="matrix(1.04744, 0, 0, 1.04744, 203.5, 100.25)" opacity="1">
<path style="fill:#869795;fill-opacity:1" d="M3.9 -0.9L3.9 -6.35Q9.4 -4.05 13.3 -4.05Q15.35 -4.05 16.6 -4.9Q17.85 -5.75 17.85 -7.1Q17.85 -8.3 16.9 -9.1Q16 -9.85 14.1 -10.6L11.6 -11.6Q7.7 -13.15 5.85 -15Q4.05 -16.85 4.05 -19.85Q4.05 -23.4 6.8 -25.7Q9.6 -28.05 15.35 -28.05Q18.7 -28.05 23.35 -27.05L23.35 -21.85Q18.85 -23.4 15.95 -23.4Q13.65 -23.4 12.5 -22.6Q11.35 -21.8 11.35 -20.55Q11.35 -19.6 12.1 -18.85Q12.8 -18.1 14.75 -17.35L16.9 -16.55Q22.2 -14.55 23.85 -12.65Q25.5 -10.7 25.5 -8.05Q25.5 -4.6 22.5 -2Q19.5 0.6 13.8 0.6Q8.95 0.6 3.9 -0.9" />
</g>
<g id="PathID_32" transform="matrix(1.04744, 0, 0, 1.04744, 203.5, 100.25)" opacity="1">
</g>
<g id="PathID_33" transform="matrix(1.04744, 0, 0, 1.04744, 231.55, 100.25)" opacity="1">
<path style="fill:#869795;fill-opacity:1" d="M18.8 -0.2Q16.15 0.6 14.6 0.6Q11 0.6 9 -0.4Q7 -1.4 6 -3.15Q5 -4.95 5 -8.35L5 -22.8L1.9 -22.8L1.9 -27.45L5 -27.45L5 -32.1L12.4 -32.95L12.4 -27.45L18.25 -27.45L18.25 -22.8L12.4 -22.8L12.4 -9.35Q12.4 -6.4 13.45 -5.35Q14.5 -4.35 16.5 -4.35Q17.45 -4.35 18.8 -4.7L18.8 -0.2" />
</g>
<g id="PathID_34" transform="matrix(1.04744, 0, 0, 1.04744, 231.55, 100.25)" opacity="1">
</g>
<g id="PathID_35" transform="matrix(1.04744, 0, 0, 1.04744, 265.85, 100.25)" opacity="1">
<path style="fill:#869795;fill-opacity:1" d="M4.35 -37L12.05 -37L12.05 -14.3Q12.05 -8.15 14.1 -6.15Q16.2 -4.2 19.55 -4.2Q22.8 -4.2 24.75 -6.15Q26.7 -8.1 26.7 -13.75L26.7 -37L33.4 -37L33.4 -14.25Q33.4 -7.85 31.75 -5.05Q30.15 -2.25 27.1 -0.65Q24.05 0.9 19.4 0.9Q14.8 0.9 11.5 -0.55Q8.2 -2.05 6.25 -4.95Q4.35 -7.9 4.35 -14.35L4.35 -37" />
</g>
<g id="PathID_36" transform="matrix(1.04744, 0, 0, 1.04744, 265.85, 100.25)" opacity="1">
</g>
<g id="PathID_37" transform="matrix(1.04744, 0, 0, 1.04744, 303.05, 100.25)" opacity="1">
<path style="fill:#869795;fill-opacity:1" d="M3.9 -0.9L3.9 -6.35Q9.4 -4.05 13.3 -4.05Q15.35 -4.05 16.6 -4.9Q17.85 -5.75 17.85 -7.1Q17.85 -8.3 16.9 -9.1Q16 -9.85 14.1 -10.6L11.6 -11.6Q7.7 -13.15 5.85 -15Q4.05 -16.85 4.05 -19.85Q4.05 -23.4 6.8 -25.7Q9.6 -28.05 15.35 -28.05Q18.7 -28.05 23.35 -27.05L23.35 -21.85Q18.85 -23.4 15.95 -23.4Q13.65 -23.4 12.5 -22.6Q11.35 -21.8 11.35 -20.55Q11.35 -19.6 12.1 -18.85Q12.8 -18.1 14.75 -17.35L16.9 -16.55Q22.2 -14.55 23.85 -12.65Q25.5 -10.7 25.5 -8.05Q25.5 -4.6 22.5 -2Q19.5 0.6 13.8 0.6Q8.95 0.6 3.9 -0.9" />
</g>
<g id="PathID_38" transform="matrix(1.04744, 0, 0, 1.04744, 303.05, 100.25)" opacity="1">
</g>
<g id="PathID_39" transform="matrix(1.04744, 0, 0, 1.04744, 331.1, 100.25)" opacity="1">
<path style="fill:#869795;fill-opacity:1" d="M26.9 -0.95Q21.65 0.6 16.95 0.6Q12.45 0.6 9.1 -1.05Q5.8 -2.7 4 -6.2Q2.2 -9.75 2.2 -13.9Q2.2 -17.75 3.7 -21Q5.25 -24.25 8.15 -26.15Q11.1 -28.05 15.35 -28.05Q20.6 -28.05 23.75 -24.7Q26.9 -21.35 26.9 -12.25L10 -12.25Q10.2 -9.45 11.2 -7.85Q12.25 -6.3 13.95 -5.35Q15.65 -4.45 18.55 -4.45Q22.25 -4.45 26.9 -6.15L26.9 -0.95M9.85 -16.45L19.6 -16.45Q19.6 -20.15 18.35 -21.75Q17.1 -23.4 15.1 -23.4Q12.95 -23.4 11.55 -21.6Q10.15 -19.85 9.85 -16.45" />
</g>
<g id="PathID_40" transform="matrix(1.04744, 0, 0, 1.04744, 331.1, 100.25)" opacity="1">
</g>
<g id="PathID_41" transform="matrix(1.04744, 0, 0, 1.04744, 360.25, 100.25)" opacity="1">
<path style="fill:#869795;fill-opacity:1" d="M4.65 0L4.65 -27.45L12.05 -27.45L12.05 -22.25Q13.35 -24.9 15.65 -26.45Q17.95 -28.05 20.8 -28.05L22.2 -27.95L22.2 -21.3Q20.6 -21.85 19.25 -21.85Q17.05 -21.85 15.25 -20.7Q13.45 -19.6 12.05 -17.4L12.05 0L4.65 0" />
</g>
<g id="PathID_42" transform="matrix(1.04744, 0, 0, 1.04744, 360.25, 100.25)" opacity="1">
</g>
<g id="PathID_43" transform="matrix(0.695785, 0.000406097, -0.000406097, 0.695785, 170.5, 229)" opacity="1">
<path style="fill:#869795;fill-opacity:1" d="M3.2 -2.9L16.85 -20.8Q18.2 -22.55 18.95 -24.25Q19.7 -25.95 19.7 -27.25L19.7 -27.3Q19.7 -30.2 18 -31.75Q16.35 -33.35 13.3 -33.35Q10.45 -33.35 8.65 -31.65Q6.9 -29.95 6.5 -26.85L6.5 -26.8L2.75 -26.8L2.75 -26.85Q3.2 -29.95 4.55 -32.15Q5.95 -34.4 8.15 -35.55Q10.35 -36.7 13.25 -36.7Q16.5 -36.7 18.8 -35.6Q21.1 -34.5 22.3 -32.35Q23.5 -30.25 23.5 -27.25L23.5 -27.2Q23.5 -25.5 22.5 -23.3Q21.5 -21.1 19.75 -18.8L7.7 -3.35L23.7 -3.35L23.7 0L3.2 0L3.2 -2.9" />
</g>
<g id="PathID_44" transform="matrix(0.695785, 0.000406097, -0.000406097, 0.695785, 170.5, 229)" opacity="1">
</g>
<g id="PathID_45" transform="matrix(0.695785, 0.000406097, -0.000406097, 0.695785, 188.85, 229)" opacity="1">
<path style="fill:#869795;fill-opacity:1" d="M14.1 0.4Q9 0.4 6.35 -2.3Q3.75 -5.05 3.75 -9.95L3.75 -26.45Q3.75 -31.35 6.4 -34.05Q9.05 -36.8 14.1 -36.8Q19.2 -36.8 21.85 -34.1Q24.5 -31.4 24.5 -26.45L24.5 -9.95Q24.5 -5.05 21.85 -2.3Q19.2 0.4 14.1 0.4M14.1 -2.95Q17.6 -2.95 19.25 -4.75Q20.9 -6.6 20.9 -9.95L20.9 -26.45Q20.9 -29.85 19.25 -31.65Q17.6 -33.45 14.1 -33.45Q10.65 -33.45 9 -31.65Q7.35 -29.85 7.35 -26.45L7.35 -9.95Q7.35 -6.6 9 -4.75Q10.65 -2.95 14.1 -2.95" />
</g>
<g id="PathID_46" transform="matrix(0.695785, 0.000406097, -0.000406097, 0.695785, 188.85, 229)" opacity="1">
</g>
<g id="PathID_47" transform="matrix(0.695785, 0.000406097, -0.000406097, 0.695785, 208.45, 229)" opacity="1">
<path style="fill:#869795;fill-opacity:1" d="M3.2 -2.9L16.85 -20.8Q18.2 -22.55 18.95 -24.25Q19.7 -25.95 19.7 -27.25L19.7 -27.3Q19.7 -30.2 18 -31.75Q16.35 -33.35 13.3 -33.35Q10.45 -33.35 8.65 -31.65Q6.9 -29.95 6.5 -26.85L6.5 -26.8L2.75 -26.8L2.75 -26.85Q3.2 -29.95 4.55 -32.15Q5.95 -34.4 8.15 -35.55Q10.35 -36.7 13.25 -36.7Q16.5 -36.7 18.8 -35.6Q21.1 -34.5 22.3 -32.35Q23.5 -30.25 23.5 -27.25L23.5 -27.2Q23.5 -25.5 22.5 -23.3Q21.5 -21.1 19.75 -18.8L7.7 -3.35L23.7 -3.35L23.7 0L3.2 0L3.2 -2.9" />
</g>
<g id="PathID_48" transform="matrix(0.695785, 0.000406097, -0.000406097, 0.695785, 208.45, 229)" opacity="1">
</g>
<g id="PathID_49" transform="matrix(0.695785, 0.000406097, -0.000406097, 0.695785, 226.8, 229.05)" opacity="1">
<path style="fill:#869795;fill-opacity:1" d="M3.2 -2.9L16.85 -20.8Q18.2 -22.55 18.95 -24.25Q19.7 -25.95 19.7 -27.25L19.7 -27.3Q19.7 -30.2 18 -31.75Q16.35 -33.35 13.3 -33.35Q10.45 -33.35 8.65 -31.65Q6.9 -29.95 6.5 -26.85L6.5 -26.8L2.75 -26.8L2.75 -26.85Q3.2 -29.95 4.55 -32.15Q5.95 -34.4 8.15 -35.55Q10.35 -36.7 13.25 -36.7Q16.5 -36.7 18.8 -35.6Q21.1 -34.5 22.3 -32.35Q23.5 -30.25 23.5 -27.25L23.5 -27.2Q23.5 -25.5 22.5 -23.3Q21.5 -21.1 19.75 -18.8L7.7 -3.35L23.7 -3.35L23.7 0L3.2 0L3.2 -2.9" />
</g>
<g id="PathID_50" transform="matrix(0.695785, 0.000406097, -0.000406097, 0.695785, 226.8, 229.05)" opacity="1">
</g>
<g id="PathID_51" transform="matrix(0.695785, 0.000406097, -0.000406097, 0.695785, 254.6, 229.05)" opacity="1">
<path style="fill:#869795;fill-opacity:1" d="M8.1 -8.8L5 0L1 0L14.4 -36.35L18.75 -36.35L32.15 0L28.15 0L25 -8.8L26.3 -8.8L26.3 -12.15L23.8 -12.15L16.55 -32.55L9.3 -12.15L7.15 -12.15L7.15 -8.8L8.1 -8.8L9.3 -12.15L23.8 -12.15L25 -8.8L8.1 -8.8" />
</g>
<g id="PathID_52" transform="matrix(0.695785, 0.000406097, -0.000406097, 0.695785, 254.6, 229.05)" opacity="1">
</g>
<g id="PathID_53" transform="matrix(0.695785, 0.000406097, -0.000406097, 0.695785, 277.6, 229.05)" opacity="1">
<path style="fill:#869795;fill-opacity:1" d="M1.75 -25.95L5.55 -25.95L11.65 -4.9L18.9 -25.95L20.95 -25.95L28.15 -4.9L34.25 -25.95L38.1 -25.95L29.85 0L26.75 0L19.9 -19.4L13.1 0L10 0L1.75 -25.95" />
</g>
<g id="PathID_54" transform="matrix(0.695785, 0.000406097, -0.000406097, 0.695785, 277.6, 229.05)" opacity="1">
</g>
<g id="PathID_55" transform="matrix(0.695785, 0.000406097, -0.000406097, 0.695785, 305.15, 229.1)" opacity="1">
<path style="fill:#869795;fill-opacity:1" d="M12.3 0.4Q7.75 0.4 5.25 -1.7Q2.75 -3.8 2.75 -7.65Q2.75 -11.3 5 -13.3Q7.3 -15.35 11.5 -15.35L19.9 -15.35L19.9 -16.45Q19.9 -19.6 18.2 -21.3Q16.5 -23.05 13.4 -23.05Q11.55 -23.05 9.75 -22.45Q8 -21.85 6.65 -20.75L4 -22.55Q5.5 -24.35 7.9 -25.3Q10.3 -26.3 13.25 -26.3Q16.5 -26.3 18.8 -25.15Q21.1 -24.05 22.3 -21.85Q23.5 -19.7 23.5 -16.65L23.5 0L19.9 0L19.9 -1.85L20.4 -2.2L19.9 -5.6L19.9 -12L20.45 -12L20.1 -15.35L19.9 -15.35L19.9 -12L11.5 -12Q9 -12 7.65 -10.85Q6.3 -9.7 6.3 -7.65Q6.3 -5.45 8 -4.2Q9.7 -3 12.85 -3Q16.2 -3 18.05 -3.65Q19.9 -4.35 19.9 -5.6L19.9 -1.85Q19.3 -1.25 18.4 -0.8Q17.2 -0.2 15.65 0.1Q14.1 0.4 12.3 0.4" />
</g>
<g id="PathID_56" transform="matrix(0.695785, 0.000406097, -0.000406097, 0.695785, 305.15, 229.1)" opacity="1">
</g>
<g id="PathID_57" transform="matrix(0.695785, 0.000406097, -0.000406097, 0.695785, 324.1, 229.1)" opacity="1">
<path style="fill:#869795;fill-opacity:1" d="M7.05 -21.4L7.6 -16.4L7.6 0L4 0L4 -25.95L7.6 -25.95L7.6 -21.95Q7.25 -21.75 7.05 -21.4M19.25 -21.3Q18.45 -22.1 17.25 -22.5Q16.05 -22.95 14.45 -22.95Q11.2 -22.95 9.4 -21.2Q7.6 -19.5 7.6 -16.4L7.6 -21.95Q8.8 -23.95 10.8 -25Q13.1 -26.3 15.85 -26.3Q17.65 -26.3 19.05 -25.8Q20.5 -25.3 21.6 -24.3L19.25 -21.3" />
</g>
<g id="PathID_58" transform="matrix(0.695785, 0.000406097, -0.000406097, 0.695785, 324.1, 229.1)" opacity="1">
</g>
<g id="PathID_59" transform="matrix(0.695785, 0.000406097, -0.000406097, 0.695785, 339.2, 229.1)" opacity="1">
<path style="fill:#869795;fill-opacity:1" d="M12.2 0.4Q9.4 0.4 7.35 -0.85Q5.35 -2.1 4.3 -4.45Q3.25 -6.8 3.25 -10.1L3.25 -15.75Q3.25 -19.1 4.25 -21.45Q5.3 -23.85 7.25 -25.05Q9.2 -26.3 11.95 -26.3Q14.95 -26.3 17.15 -25.2Q19.15 -24.25 20.25 -22.05L20.25 -36.35L23.85 -36.35L23.85 0L20.25 0L20.25 -3.65Q20.5 -3.8 20.6 -4.05L20.25 -9.5L20.25 -16.55L20.75 -21.55Q20.6 -21.85 20.25 -22.05L20.25 -16.55Q20.25 -18.25 19.45 -19.75Q18.65 -21.3 17.15 -22.25Q15.65 -23.2 13.65 -23.2Q10.4 -23.2 8.6 -21.25Q6.85 -19.3 6.85 -15.7L6.85 -10.1Q6.85 -6.6 8.6 -4.65Q10.4 -2.7 13.65 -2.7Q15.65 -2.7 17.15 -3.65Q18.65 -4.65 19.45 -6.2Q20.25 -7.8 20.25 -9.5L20.25 -3.65Q19.4 -1.6 17.45 -0.65Q15.35 0.4 12.2 0.4" />
</g>
<g id="PathID_60" transform="matrix(0.695785, 0.000406097, -0.000406097, 0.695785, 339.2, 229.1)" opacity="1">
</g>
<g id="PathID_61" transform="matrix(0.520034, 0, 0.0152697, 0.51981, 182.55, 260.35)" opacity="1">
<path style="fill:#869795;fill-opacity:1" d="M36.8 0L28.7 0L25.5 -8.35L10.9 -8.35L7.85 0L0 0L14.3 -36.65L22.1 -36.65L36.8 0M23.15 -14.55L18.1 -28.1L13.15 -14.55L23.15 -14.55" />
</g>
<g id="PathID_62" transform="matrix(0.520034, 0, 0.0152697, 0.51981, 182.55, 260.35)" opacity="1">
</g>
<g id="PathID_63" transform="matrix(0.520034, 0, 0.0152697, 0.51981, 200.65, 260.35)" opacity="1">
<path style="fill:#869795;fill-opacity:1" d="M3 1.7L11.05 2.7Q11.2 4.15 11.95 4.65Q12.95 5.4 15.1 5.4Q17.85 5.4 19.2 4.6Q20.15 4.05 20.6 2.8Q20.95 1.95 20.95 -0.45L20.95 -4.35Q17.8 0 13 0Q7.65 0 4.5 -4.5Q2.1 -8.1 2.1 -13.4Q2.1 -20.1 5.3 -23.6Q8.5 -27.15 13.25 -27.15Q18.2 -27.15 21.4 -22.8L21.4 -26.55L28 -26.55L28 -2.7Q28 2 27.2 4.3Q26.4 6.65 25 7.95Q23.6 9.3 21.25 10.05Q18.95 10.8 15.35 10.8Q8.6 10.8 5.75 8.45Q2.95 6.15 2.95 2.6L3 1.7M9.3 -13.8Q9.3 -9.6 10.9 -7.65Q12.55 -5.7 14.95 -5.7Q17.5 -5.7 19.25 -7.7Q21.05 -9.7 21.05 -13.65Q21.05 -17.75 19.35 -19.75Q17.65 -21.75 15.05 -21.75Q12.55 -21.75 10.9 -19.75Q9.3 -17.8 9.3 -13.8" />
</g>
<g id="PathID_64" transform="matrix(0.520034, 0, 0.0152697, 0.51981, 200.65, 260.35)" opacity="1">
</g>
<g id="PathID_65" transform="matrix(0.520034, 0, 0.0152697, 0.51981, 215.8, 260.35)" opacity="1">
<path style="fill:#869795;fill-opacity:1" d="M19.05 -8.45L26.05 -7.25Q24.7 -3.4 21.75 -1.4Q18.85 0.6 14.5 0.6Q7.55 0.6 4.25 -3.9Q1.65 -7.55 1.65 -13.05Q1.65 -19.65 5.1 -23.4Q8.55 -27.15 13.8 -27.15Q19.75 -27.15 23.15 -23.2Q26.6 -19.3 26.45 -11.25L8.85 -11.25Q8.9 -8.1 10.5 -6.35Q12.15 -4.65 14.55 -4.65Q16.2 -4.65 17.3 -5.55Q18.45 -6.45 19.05 -8.45M19.45 -15.55Q19.35 -18.55 17.85 -20.15Q16.35 -21.75 14.2 -21.75Q11.9 -21.75 10.4 -20.05Q8.95 -18.4 8.95 -15.55L19.45 -15.55" />
</g>
<g id="PathID_66" transform="matrix(0.520034, 0, 0.0152697, 0.51981, 215.8, 260.35)" opacity="1">
</g>
<g id="PathID_67" transform="matrix(0.520034, 0, 0.0152697, 0.51981, 229.5, 260.35)" opacity="1">
<path style="fill:#869795;fill-opacity:1" d="M27.8 0L20.75 0L20.75 -13.5Q20.75 -17.8 20.3 -19.05Q19.85 -20.35 18.8 -21.05Q17.8 -21.75 16.4 -21.75Q14.6 -21.75 13.15 -20.75Q11.7 -19.75 11.15 -18.1Q10.65 -16.45 10.65 -12L10.65 0L3.6 0L3.6 -26.55L10.15 -26.55L10.15 -22.65Q13.6 -27.15 18.85 -27.15Q21.2 -27.15 23.1 -26.3Q25.05 -25.45 26 -24.15Q27 -22.85 27.4 -21.2Q27.8 -19.55 27.8 -16.5L27.8 0" />
</g>
<g id="PathID_68" transform="matrix(0.520034, 0, 0.0152697, 0.51981, 229.5, 260.35)" opacity="1">
</g>
<g id="PathID_69" transform="matrix(0.520034, 0, 0.0152697, 0.51981, 244.65, 260.35)" opacity="1">
<path style="fill:#869795;fill-opacity:1" d="M26.85 -18.7L19.9 -17.45Q19.55 -19.5 18.3 -20.55Q17.05 -21.6 15.1 -21.6Q12.45 -21.6 10.9 -19.75Q9.35 -17.95 9.35 -13.7Q9.35 -9 10.9 -7.05Q12.5 -5.15 15.2 -5.15Q17.2 -5.15 18.45 -6.25Q19.75 -7.4 20.3 -10.2L27.2 -9Q26.1 -4.25 23.05 -1.8Q20 0.6 14.9 0.6Q9.05 0.6 5.6 -3.05Q2.15 -6.75 2.15 -13.25Q2.15 -19.8 5.6 -23.45Q9.1 -27.15 15 -27.15Q19.85 -27.15 22.7 -25.05Q25.6 -22.95 26.85 -18.7" />
</g>
<g id="PathID_70" transform="matrix(0.520034, 0, 0.0152697, 0.51981, 244.65, 260.35)" opacity="1">
</g>
<g id="PathID_71" transform="matrix(0.520034, 0, 0.0152697, 0.51981, 258.35, 260.35)" opacity="1">
<path style="fill:#869795;fill-opacity:1" d="M0.3 -26.55L7.8 -26.55L14.15 -7.65L20.4 -26.55L27.7 -26.55L18.3 -0.95L16.6 3.65Q15.65 6 14.8 7.2Q14 8.45 12.9 9.2Q11.8 9.95 10.2 10.35Q8.6 10.8 6.6 10.8Q4.6 10.8 2.65 10.4L2 4.9Q3.65 5.2 4.95 5.2Q7.4 5.2 8.6 3.75Q9.8 2.35 10.4 0.1L0.3 -26.55" />
</g>
<g id="PathID_72" transform="matrix(0.520034, 0, 0.0152697, 0.51981, 258.35, 260.35)" opacity="1">
</g>
<g id="PathID_73" transform="matrix(0.520034, 0, 0.0152697, 0.51981, 273.4, 261.05)" opacity="1">
<path style="fill:#869795;fill-opacity:1" d="M2.5 -17.85Q2.5 -26.95 7.4 -32.1Q12.3 -37.3 20.05 -37.3Q25.1 -37.3 29.15 -34.85Q33.25 -32.45 35.4 -28.1Q37.55 -23.75 37.55 -18.25Q37.55 -12.7 35.3 -8.3Q33.05 -3.9 28.9 -1.65Q24.8 0.6 20 0.6Q14.85 0.6 10.75 -1.85Q6.7 -4.35 4.6 -8.65Q2.5 -13 2.5 -17.85M7.5 -17.75Q7.5 -11.15 11.05 -7.35Q14.6 -3.55 20 -3.55Q25.45 -3.55 29 -7.35Q32.55 -11.2 32.55 -18.3Q32.55 -22.75 31 -26.05Q29.5 -29.4 26.6 -31.25Q23.7 -33.1 20.05 -33.1Q14.9 -33.1 11.2 -29.55Q7.5 -26 7.5 -17.75" />
</g>
<g id="PathID_74" transform="matrix(0.520034, 0, 0.0152697, 0.51981, 273.4, 261.05)" opacity="1">
</g>
<g id="PathID_75" transform="matrix(0.520034, 0, 0.0152697, 0.51981, 293, 261.05)" opacity="1">
<path style="fill:#869795;fill-opacity:1" d="M3.4 0L3.4 -26.55L7.45 -26.55L7.45 -22.75Q10.35 -27.15 15.85 -27.15Q18.25 -27.15 20.25 -26.25Q22.3 -25.4 23.3 -24Q24.3 -22.6 24.7 -20.7Q24.95 -19.45 24.95 -16.3L24.95 0L20.45 0L20.45 -16.15Q20.45 -18.9 19.9 -20.25Q19.4 -21.6 18.05 -22.4Q16.7 -23.25 14.9 -23.25Q12.05 -23.25 9.95 -21.4Q7.9 -19.6 7.9 -14.5L7.9 0L3.4 0" />
</g>
<g id="PathID_76" transform="matrix(0.520034, 0, 0.0152697, 0.51981, 293, 261.05)" opacity="1">
</g>
<g id="PathID_77" transform="matrix(0.520034, 0, 0.0152697, 0.51981, 306.7, 261.05)" opacity="1">
<path style="fill:#869795;fill-opacity:1" d="M3.3 0L3.3 -36.65L7.8 -36.65L7.8 0L3.3 0" />
</g>
<g id="PathID_78" transform="matrix(0.520034, 0, 0.0152697, 0.51981, 306.7, 261.05)" opacity="1">
</g>
<g id="PathID_79" transform="matrix(0.520034, 0, 0.0152697, 0.51981, 311.45, 261.05)" opacity="1">
<path style="fill:#869795;fill-opacity:1" d="M3.4 -31.5L3.4 -36.65L7.9 -36.65L7.9 -31.5L3.4 -31.5M3.4 0L3.4 -26.55L7.9 -26.55L7.9 0L3.4 0" />
</g>
<g id="PathID_80" transform="matrix(0.520034, 0, 0.0152697, 0.51981, 311.45, 261.05)" opacity="1">
</g>
<g id="PathID_81" transform="matrix(0.520034, 0, 0.0152697, 0.51981, 316.25, 261.05)" opacity="1">
<path style="fill:#869795;fill-opacity:1" d="M3.4 0L3.4 -26.55L7.45 -26.55L7.45 -22.75Q10.35 -27.15 15.85 -27.15Q18.25 -27.15 20.25 -26.25Q22.3 -25.4 23.3 -24Q24.3 -22.6 24.7 -20.7Q24.95 -19.45 24.95 -16.3L24.95 0L20.45 0L20.45 -16.15Q20.45 -18.9 19.9 -20.25Q19.4 -21.6 18.05 -22.4Q16.7 -23.25 14.9 -23.25Q12.05 -23.25 9.95 -21.4Q7.9 -19.6 7.9 -14.5L7.9 0L3.4 0" />
</g>
<g id="PathID_82" transform="matrix(0.520034, 0, 0.0152697, 0.51981, 316.25, 261.05)" opacity="1">
</g>
<g id="PathID_83" transform="matrix(0.520034, 0, 0.0152697, 0.51981, 329.95, 261.05)" opacity="1">
<path style="fill:#869795;fill-opacity:1" d="M21.55 -8.6L26.2 -8Q25.1 -3.9 22.1 -1.65Q19.15 0.6 14.5 0.6Q8.7 0.6 5.3 -2.95Q1.9 -6.55 1.9 -13.05Q1.9 -19.75 5.3 -23.45Q8.75 -27.15 14.25 -27.15Q19.6 -27.15 22.95 -23.5Q26.35 -19.9 26.35 -13.3L26.3 -12.15L6.55 -12.15Q6.75 -7.75 8.95 -5.4Q11.2 -3.1 14.55 -3.1Q17 -3.1 18.75 -4.4Q20.5 -5.7 21.55 -8.6M6.8 -15.85L21.6 -15.85Q21.3 -19.15 19.9 -20.85Q17.75 -23.45 14.3 -23.45Q11.2 -23.45 9.1 -21.35Q7 -19.3 6.8 -15.85" />
</g>
<g id="PathID_84" transform="matrix(0.520034, 0, 0.0152697, 0.51981, 329.95, 261.05)" opacity="1">
</g>
</svg>
